<?xml version="1.0" standalone="no"?>
<!DOCTYPE svg PUBLIC "-//W3C//DTD SVG 20010904//EN"
 "http://www.w3.org/TR/2001/REC-SVG-20010904/DTD/svg10.dtd">
<svg version="1.0" xmlns="http://www.w3.org/2000/svg"
 width="350.000000pt" height="350.000000pt" viewBox="0 0 350.000000 350.000000"
 preserveAspectRatio="xMidYMid meet">
<metadata>
Created by potrace 1.14, written by Peter Selinger 2001-2017
</metadata>
<g transform="translate(0.000000,350.000000) scale(0.100000,-0.100000)"
fill="#000000" stroke="none">
<path d="M1550 3140 c0 -4 13 -6 30 -5 16 1 28 -1 25 -5 -2 -4 -17 -6 -32 -5
-15 1 -31 -3 -35 -9 -5 -7 -8 -3 -8 9 -1 18 -1 19 -11 3 -5 -10 -15 -18 -20
-18 -6 0 -8 4 -5 9 4 5 -2 8 -11 7 -9 -2 -19 -8 -21 -14 -2 -7 -8 -9 -13 -6
-6 3 -17 0 -26 -8 -14 -11 -16 -11 -8 2 8 13 6 13 -8 2 -9 -8 -21 -11 -27 -7
-5 3 -10 1 -10 -5 0 -6 -4 -8 -10 -5 -5 3 -10 0 -10 -7 0 -11 -2 -10 -9 0 -6
11 -10 10 -15 -3 -5 -14 -9 -15 -20 -5 -12 9 -19 7 -33 -7 -11 -11 -25 -17
-31 -15 -7 2 -12 -1 -12 -8 0 -6 -4 -8 -10 -5 -5 3 -10 -2 -11 -12 0 -10 -3
-13 -5 -7 -3 7 -14 10 -24 7 -11 -3 -17 -10 -13 -16 4 -6 0 -8 -11 -4 -10 4
-19 1 -22 -8 -4 -8 -10 -13 -14 -10 -5 3 -11 1 -15 -5 -4 -6 -11 -8 -16 -5 -5
4 -9 1 -9 -5 0 -6 -5 -8 -10 -5 -6 3 -13 -1 -16 -9 -3 -9 -10 -14 -14 -11 -4
3 -11 -2 -14 -11 -3 -8 -10 -12 -16 -9 -6 3 -13 -1 -16 -9 -3 -9 -10 -14 -15
-11 -4 3 -13 -3 -19 -14 -7 -13 -16 -18 -27 -14 -11 4 -14 3 -9 -5 6 -11 -5
-16 -26 -13 -4 0 -4 -7 -1 -16 4 -11 3 -14 -5 -9 -7 4 -12 2 -12 -4 0 -6 -4
-9 -8 -6 -4 2 -19 -5 -32 -16 -14 -11 -18 -17 -10 -13 8 4 4 -3 -10 -16 -14
-12 -24 -26 -22 -30 1 -5 -1 -8 -5 -8 -21 3 -33 -2 -30 -13 1 -7 -4 -12 -10
-11 -7 2 -14 -2 -14 -7 -1 -6 -2 -14 -3 -19 0 -5 -5 -13 -10 -18 -5 -5 -6 -2
-2 7 5 9 2 8 -7 -2 -8 -10 -17 -15 -20 -11 -4 3 -7 -3 -7 -14 0 -23 -23 -47
-34 -36 -4 4 -4 -1 0 -11 5 -14 4 -17 -4 -12 -11 6 -17 -5 -13 -26 0 -5 -4 -8
-10 -8 -5 0 -7 -6 -3 -12 5 -8 2 -8 -10 1 -9 8 -16 10 -15 5 2 -10 -11 -46
-20 -54 -15 -13 -31 -52 -26 -61 4 -5 1 -8 -7 -7 -7 2 -13 -5 -13 -15 0 -9
-13 -31 -28 -47 -22 -22 -24 -29 -10 -24 17 5 16 4 -1 -10 -11 -9 -16 -16 -10
-16 5 0 1 -5 -9 -11 -9 -6 -15 -15 -11 -20 3 -6 -2 -20 -13 -32 -16 -19 -16
-20 0 -8 15 12 17 12 11 -3 -3 -9 -10 -16 -16 -16 -5 0 -7 -4 -3 -9 3 -5 1
-12 -5 -16 -6 -4 -8 -10 -5 -15 3 -5 -3 -13 -12 -19 -12 -7 -13 -10 -4 -11 11
0 11 -3 1 -15 -7 -8 -9 -15 -5 -15 4 0 1 -8 -6 -17 -8 -9 -9 -14 -3 -10 6 3
11 0 11 -7 0 -8 -6 -12 -12 -9 -9 3 -12 -6 -10 -26 1 -17 -1 -31 -6 -31 -5 0
-9 -5 -9 -11 0 -5 4 -8 8 -5 5 3 9 -1 9 -9 0 -8 -5 -13 -11 -12 -7 1 -11 -36
-11 -110 0 -62 -4 -113 -8 -113 -5 0 -5 -6 0 -12 14 -23 14 -50 1 -42 -10 6
-10 5 -1 -7 10 -12 10 -18 1 -27 -7 -7 -8 -12 -2 -12 5 0 8 -35 8 -80 -1 -47
3 -80 8 -80 6 0 4 -8 -3 -17 -12 -14 -12 -16 2 -11 9 4 16 1 16 -8 0 -7 -4
-11 -9 -8 -4 3 -8 0 -8 -5 0 -6 4 -11 9 -11 5 0 7 -8 4 -19 -3 -10 0 -22 6
-25 6 -4 11 -12 11 -17 0 -6 -5 -7 -11 -3 -6 3 -3 -5 6 -20 9 -14 15 -33 11
-41 -3 -9 -2 -13 4 -10 6 3 10 -3 10 -14 0 -12 3 -21 8 -21 4 0 8 -12 9 -27 0
-15 6 -29 12 -31 9 -3 8 -8 -1 -20 -11 -13 -11 -14 1 -7 11 6 13 4 8 -8 -4
-11 -1 -17 9 -17 8 0 12 -4 9 -10 -3 -5 -1 -10 5 -10 6 0 8 -5 5 -11 -4 -6 1
-17 11 -25 11 -9 13 -12 6 -9 -12 6 -12 3 -1 -16 7 -13 12 -27 11 -32 -1 -4 1
-6 5 -6 21 3 24 -3 12 -18 -7 -10 -10 -15 -5 -11 11 9 39 -19 31 -31 -3 -5 0
-13 6 -17 8 -5 9 -3 4 6 -5 9 -4 11 3 6 7 -4 12 -19 12 -34 0 -21 2 -24 10
-12 8 12 10 11 10 -7 0 -12 9 -27 20 -33 11 -6 20 -17 20 -25 0 -8 5 -15 10
-15 6 0 10 -7 10 -16 0 -9 5 -12 12 -8 8 5 9 2 5 -10 -4 -9 -3 -15 1 -12 9 5
42 -29 42 -43 0 -5 8 -15 18 -22 16 -13 16 -12 3 6 -8 11 -3 8 12 -7 15 -15
27 -32 27 -38 0 -6 8 -14 18 -17 9 -4 29 -19 44 -35 14 -15 29 -28 33 -28 3 0
13 -7 22 -15 8 -8 19 -13 24 -10 5 4 9 -1 9 -9 0 -14 19 -21 44 -17 5 1 3 -6
-5 -15 -13 -16 -12 -17 9 -12 15 4 25 2 29 -8 3 -8 11 -14 18 -14 19 0 66 -26
59 -33 -4 -3 2 -6 12 -6 41 -1 53 -5 58 -18 8 -20 106 -18 106 2 0 8 5 15 11
15 5 0 7 -6 3 -12 -6 -10 -5 -10 8 -1 8 7 18 10 21 6 4 -3 7 0 7 8 0 11 2 11
10 -1 8 -12 10 -12 10 5 0 16 2 17 10 5 8 -12 10 -12 16 3 3 9 10 15 14 12 13
-8 71 30 62 40 -4 5 -1 5 7 0 9 -5 19 -1 28 11 8 10 17 19 21 19 4 0 6 3 4 8
-1 4 5 7 13 7 8 0 15 4 15 9 0 6 13 18 30 27 23 14 27 21 18 31 -6 8 -7 13 -2
11 5 -2 10 0 11 5 2 4 12 17 22 29 11 11 18 25 15 30 -3 4 3 8 13 9 10 0 13 3
7 5 -8 3 -6 17 8 45 22 46 27 157 8 169 -7 4 -10 12 -6 18 3 5 -1 15 -9 22 -8
7 -15 19 -15 26 0 8 -6 14 -14 14 -8 0 -18 5 -22 12 -5 7 -2 9 7 4 8 -4 5 0
-5 8 -11 9 -26 16 -34 16 -8 0 -10 5 -6 13 4 6 4 9 -1 5 -4 -4 -15 -2 -23 5
-13 10 -15 9 -8 -3 4 -8 0 -6 -8 4 -12 15 -16 16 -16 5 0 -12 -2 -12 -10 1 -5
8 -12 11 -16 8 -4 -4 -15 -3 -25 3 -14 7 -19 6 -19 -2 0 -8 -5 -7 -17 2 -11
10 -14 10 -9 2 4 -8 1 -13 -8 -13 -9 0 -16 -5 -16 -11 0 -5 -4 -7 -10 -4 -5 3
-7 0 -4 -8 3 -8 0 -18 -6 -22 -9 -6 -9 -10 1 -16 11 -7 11 -9 -1 -9 -10 0 -17
-11 -18 -32 -2 -18 -8 -36 -15 -40 -7 -4 -8 -8 -3 -8 5 0 2 -8 -5 -17 -12 -14
-12 -16 1 -9 8 4 6 0 -5 -9 -11 -9 -19 -25 -17 -37 2 -12 0 -18 -7 -13 -6 3
-15 -4 -20 -17 -5 -13 -17 -30 -27 -38 -17 -13 -16 -11 1 9 l20 25 -26 -20
c-15 -10 -25 -22 -22 -26 2 -5 -3 -8 -11 -8 -9 0 -16 -5 -16 -11 0 -5 -4 -8
-9 -4 -5 3 -15 0 -23 -7 -17 -16 -24 -18 -99 -19 -42 -1 -64 3 -70 12 -7 12
-9 11 -9 -1 0 -12 -2 -12 -9 -2 -4 8 -7 24 -5 38 1 13 -3 24 -9 24 -8 0 -8 3
-2 8 13 9 15 52 3 52 -5 0 -6 6 -2 12 11 18 12 108 1 108 -5 0 -4 7 3 15 9 11
10 18 1 28 -6 8 -8 17 -4 21 11 11 11 56 0 56 -5 0 -4 7 3 15 9 11 10 18 1 28
-6 8 -8 17 -4 21 11 10 11 56 1 56 -5 0 -6 6 -1 13 12 18 11 67 -1 67 -8 0 -8
3 -1 8 12 8 13 22 2 40 -5 6 -4 12 2 12 13 0 9 52 -4 62 -6 5 -6 8 2 8 12 0
12 17 0 36 -3 6 -3 14 0 18 12 11 10 86 -1 86 -7 0 -7 3 -1 8 14 10 14 65 1
74 -8 6 -8 8 0 8 7 0 10 13 9 30 -1 17 2 30 7 30 5 0 6 4 3 10 -4 6 3 6 21 0
22 -9 25 -8 16 3 -9 11 -8 14 3 14 8 0 15 -5 15 -10 0 -5 8 -3 17 4 11 10 14
10 9 2 -8 -14 6 -18 18 -6 10 11 37 12 30 2 -3 -5 0 -9 5 -9 6 0 11 6 11 13 0
8 3 8 9 -2 5 -8 17 -16 25 -17 9 -1 14 2 10 7 -3 5 -2 9 3 10 4 0 18 2 31 3
12 2 22 -2 22 -8 0 -6 5 -4 11 4 8 11 12 12 16 3 2 -7 9 -13 14 -13 6 0 7 6 3
13 -5 7 0 6 11 -3 11 -9 16 -10 11 -2 -4 6 -2 12 3 12 6 0 11 -6 11 -12 0 -9
4 -8 10 2 9 13 10 13 10 0 0 -13 1 -13 10 0 7 11 10 11 10 2 0 -7 5 -10 10 -7
6 4 23 8 38 11 20 3 23 2 12 -6 -13 -8 -13 -10 2 -10 9 0 19 6 21 13 4 9 6 9
6 0 1 -7 8 -13 17 -13 9 0 12 5 8 13 -6 9 -5 9 7 0 8 -6 32 -12 54 -14 22 -1
46 -8 54 -13 11 -8 13 -8 8 1 -5 8 0 11 13 10 11 -1 20 -4 20 -7 0 -4 7 -7 15
-8 8 -1 22 -3 30 -4 8 -1 15 -6 15 -12 0 -6 5 -4 10 4 9 13 10 13 10 0 0 -13
1 -13 10 0 8 13 10 12 10 -2 0 -10 5 -18 11 -18 5 0 7 4 4 10 -3 6 1 7 9 4 9
-3 16 -10 16 -16 0 -5 4 -7 9 -3 5 3 16 -1 24 -9 11 -11 17 -12 26 -3 8 8 11
8 11 -1 0 -7 7 -12 16 -12 8 0 12 -4 9 -10 -3 -6 1 -7 9 -4 9 3 16 2 16 -4 0
-6 9 -8 20 -5 14 4 20 0 20 -11 0 -10 5 -13 17 -9 13 5 15 2 10 -12 -6 -14 -5
-15 6 -7 10 8 16 6 25 -8 7 -11 18 -17 27 -14 8 4 15 1 15 -5 0 -6 7 -11 15
-11 8 0 15 -4 15 -10 0 -5 7 -10 15 -10 8 0 15 -4 15 -10 0 -5 7 -10 16 -10
10 0 14 -6 11 -14 -4 -9 0 -13 11 -12 18 3 42 -15 35 -26 -2 -5 6 -8 18 -8 12
0 20 -3 16 -6 -9 -9 54 -74 71 -74 9 0 13 -3 9 -6 -3 -3 4 -17 16 -30 38 -41
46 -52 40 -58 -4 -3 2 -6 11 -6 12 0 16 -5 13 -14 -3 -8 1 -17 9 -20 9 -3 12
-10 9 -16 -3 -5 2 -10 12 -10 15 0 16 -2 3 -10 -13 -8 -12 -10 3 -10 10 0 17
-8 17 -19 0 -10 7 -24 15 -31 8 -7 12 -16 9 -21 -3 -5 0 -9 6 -9 6 0 8 -5 5
-10 -3 -5 -1 -10 5 -10 6 0 8 -4 5 -10 -3 -5 -1 -10 5 -10 6 0 8 -4 5 -10 -3
-5 -2 -10 4 -10 5 0 8 -11 6 -25 -2 -20 1 -23 11 -15 10 9 11 6 7 -9 -3 -14
-1 -21 8 -21 11 0 11 -2 -1 -10 -12 -8 -12 -10 5 -11 11 0 14 -3 7 -6 -10 -4
-10 -8 -1 -20 7 -8 13 -29 14 -48 0 -18 7 -40 15 -50 8 -10 14 -20 13 -22 -2
-1 -3 -15 -3 -29 0 -17 4 -23 13 -18 8 5 8 2 -2 -9 -11 -14 -11 -20 -1 -32 10
-12 10 -18 -1 -32 -10 -11 -10 -14 -1 -9 13 8 13 6 15 -66 0 -27 4 -48 8 -48
19 0 38 13 32 23 -4 7 0 8 12 3 15 -5 16 -4 5 9 -11 13 -10 14 3 10 8 -4 18
-1 22 4 3 6 11 8 17 5 7 -4 8 -2 4 4 -4 6 5 17 21 26 15 8 26 16 23 18 -3 3 2
12 11 21 9 9 19 13 23 10 3 -4 6 -2 6 3 0 6 7 19 16 30 8 10 13 12 9 4 -4 -8
0 -6 9 4 8 10 13 24 9 29 -4 6 0 8 11 4 10 -4 15 -3 11 3 -3 6 -1 10 5 10 6 0
9 3 7 8 -3 4 5 16 16 27 11 11 16 13 12 5 -5 -9 -5 -12 1 -7 9 9 10 13 13 43
0 8 5 12 11 9 5 -3 15 5 22 19 6 14 16 26 22 26 6 0 4 5 -4 10 -13 8 -12 10 4
10 12 0 16 5 12 16 -3 8 -2 12 4 9 6 -3 10 1 10 9 0 9 5 16 11 16 5 0 7 5 4
10 -3 5 -1 10 4 10 6 0 11 9 11 21 0 14 5 19 14 16 10 -4 13 1 11 19 -1 13 2
24 7 24 6 0 8 7 4 15 -5 13 5 19 26 16 4 0 3 10 -2 23 -6 18 -4 28 9 43 10 10
15 25 13 32 -3 10 0 11 9 5 11 -6 10 -3 -1 11 -9 11 -10 16 -2 11 12 -7 16 4
13 32 -1 6 3 12 9 12 6 0 8 5 5 10 -3 5 0 10 7 11 7 0 4 4 -7 9 -19 8 -19 9
-1 9 15 1 17 7 14 31 -3 17 0 34 5 37 6 4 7 1 2 -7 -5 -8 -4 -11 3 -7 5 4 8
16 5 26 -3 10 1 29 7 41 10 18 10 21 -2 14 -9 -6 -8 0 4 17 9 15 13 31 8 38
-9 16 -1 53 10 46 5 -3 7 3 5 12 -2 10 -4 20 -4 23 -1 3 -6 -2 -12 -10 -9 -13
-10 -13 -6 0 2 8 10 14 16 12 15 -3 12 180 -3 190 -8 5 -7 8 2 8 16 0 15 18
-2 36 -8 8 -13 24 -11 36 3 12 -1 26 -8 30 -9 6 -9 8 0 8 10 0 10 6 1 28 -6
15 -10 37 -10 49 1 12 -3 25 -8 28 -7 4 -6 13 0 26 9 15 7 21 -5 25 -11 5 -13
10 -5 19 8 10 7 16 -6 23 -11 6 -15 17 -11 31 3 11 0 24 -5 28 -7 4 -8 1 -3
-7 6 -9 4 -11 -4 -6 -7 5 -10 14 -7 22 3 8 1 14 -5 14 -6 0 -7 5 -4 11 4 6 -1
17 -11 25 -11 9 -14 13 -7 10 6 -4 14 -2 18 4 3 5 -1 10 -10 10 -9 0 -13 5
-10 10 3 6 3 10 -2 10 -4 0 -13 11 -20 25 -8 19 -8 24 0 19 7 -3 4 1 -5 9 -10
8 -15 17 -11 20 3 4 1 7 -6 7 -7 0 -9 5 -6 10 3 6 0 10 -9 10 -8 0 -13 8 -12
17 2 10 -2 23 -8 30 -29 33 -36 43 -36 53 0 7 -10 21 -22 32 -13 11 -16 16 -8
12 8 -3 0 7 -17 24 -19 17 -29 34 -23 37 15 9 2 25 -15 18 -9 -3 -15 1 -15 8
-1 14 -44 69 -55 69 -9 0 -65 63 -65 73 0 5 -7 7 -15 4 -8 -4 -17 -1 -21 5 -5
7 -2 8 7 4 8 -4 6 -1 -3 7 -10 8 -14 18 -10 23 4 4 -2 2 -12 -6 -13 -10 -17
-10 -12 -2 4 7 2 12 -4 12 -6 0 -8 5 -4 12 4 7 3 8 -4 4 -6 -4 -21 4 -33 18
-13 15 -27 22 -38 18 -14 -5 -14 -3 -3 11 12 14 11 16 -6 12 -11 -2 -23 3 -26
11 -3 8 -13 14 -21 14 -9 0 -14 4 -11 8 3 5 -2 9 -10 9 -8 0 -13 -6 -10 -13 3
-7 0 -11 -7 -8 -7 2 -13 -3 -14 -13 -3 -41 -23 -87 -23 -53 0 7 -3 10 -6 7 -4
-4 -1 -13 6 -22 10 -12 10 -15 0 -15 -7 0 -10 -7 -6 -16 3 -8 2 -12 -4 -9 -6
3 -11 -1 -11 -9 -1 -9 -3 -20 -4 -26 -1 -5 -3 -14 -4 -20 0 -5 -9 -10 -18 -10
-15 0 -16 -2 -3 -10 13 -9 7 -14 -12 -11 -4 0 -5 -5 -2 -13 3 -7 -6 -24 -20
-37 -18 -17 -22 -27 -14 -36 10 -13 -1 -18 -26 -14 -5 1 -4 -5 4 -13 7 -10 8
-16 2 -16 -6 0 -14 -9 -17 -21 -4 -13 -12 -18 -21 -15 -9 3 -12 1 -9 -4 8 -12
-19 -53 -28 -43 -4 3 -7 1 -7 -5 0 -7 6 -12 13 -12 6 -1 -1 -8 -16 -16 -18
-10 -27 -21 -23 -30 3 -8 2 -13 -3 -10 -5 3 -12 -1 -15 -10 -3 -8 -11 -12 -16
-9 -6 4 -10 3 -9 -2 3 -20 -2 -34 -11 -28 -5 3 -11 1 -11 -4 -1 -6 -2 -15 -3
-20 0 -5 -5 -13 -10 -18 -5 -5 -6 -2 -1 7 4 8 -4 2 -19 -14 -14 -16 -26 -33
-26 -38 0 -5 -4 -7 -9 -4 -5 3 -11 -1 -15 -9 -3 -8 -16 -15 -28 -15 -19 0 -20
-2 -8 -10 13 -9 7 -14 -12 -11 -5 0 -7 -5 -5 -12 1 -6 -3 -11 -10 -10 -7 2
-17 -6 -23 -17 -6 -11 -16 -20 -21 -20 -6 0 -20 -11 -31 -25 -10 -13 -22 -24
-26 -24 -21 3 -32 -2 -26 -13 5 -8 2 -9 -10 -5 -10 4 -15 3 -11 -3 3 -6 1 -10
-5 -10 -6 0 -8 -4 -5 -10 4 -6 -1 -7 -11 -3 -13 5 -15 3 -9 -8 7 -12 6 -12
-11 1 -10 8 -16 11 -12 6 4 -4 1 -14 -5 -21 -9 -10 -15 -10 -26 -1 -11 8 -13
8 -8 0 8 -13 -33 -44 -58 -44 -8 0 -15 -4 -15 -10 0 -5 -9 -10 -20 -10 -11 0
-23 -6 -26 -14 -3 -8 -12 -12 -20 -9 -8 3 -14 0 -14 -7 0 -6 -4 -8 -10 -5 -5
3 -10 1 -10 -5 0 -6 -4 -9 -9 -6 -15 9 -42 -5 -34 -18 4 -7 1 -6 -9 2 -12 10
-18 9 -28 -3 -7 -9 -19 -14 -27 -11 -8 3 -16 -1 -19 -9 -4 -8 -10 -15 -16 -15
-5 0 -7 4 -4 8 3 5 -1 9 -9 9 -8 0 -12 -3 -10 -6 2 -4 -8 -11 -21 -18 -16 -7
-26 -8 -30 -1 -4 6 -10 5 -15 -3 -8 -12 -10 -12 -18 0 -7 10 -10 10 -13 1 -2
-8 -26 -13 -58 -15 -36 -1 -54 -6 -52 -14 1 -8 -4 -8 -19 1 -17 11 -22 10 -29
-3 -11 -19 -59 -17 -71 3 -6 9 -9 9 -9 1 0 -6 -9 -10 -20 -8 -11 2 -20 -2 -20
-8 0 -8 -3 -8 -9 1 -4 8 -11 13 -15 13 -21 -3 -24 1 -16 28 6 22 4 33 -9 45
-15 16 -15 17 1 11 14 -5 16 -2 13 15 -3 18 -2 20 10 10 9 -7 15 -8 20 -1 3 6
24 9 45 7 22 -2 37 0 35 4 -3 4 2 11 11 14 23 9 26 8 18 -6 -4 -7 7 -2 24 11
18 12 36 19 42 16 5 -3 10 2 10 12 0 15 2 16 10 3 9 -13 14 -7 11 12 0 4 6 5
14 2 8 -4 15 -1 15 6 0 6 5 8 12 4 8 -5 9 -2 5 10 -4 10 -3 15 3 11 6 -3 10
-2 10 4 0 6 6 8 14 5 8 -3 17 0 22 7 4 8 3 10 -4 5 -7 -4 -12 -2 -12 3 0 6 7
11 15 11 8 0 15 7 15 16 0 8 5 12 10 9 6 -4 10 -3 9 2 -4 22 2 43 11 38 6 -3
10 3 10 14 0 11 5 23 11 26 6 4 8 13 5 21 -3 8 -1 14 5 14 6 0 8 4 5 9 -4 5
-1 11 5 13 7 2 13 22 14 43 1 28 6 39 16 37 9 -2 7 4 -6 18 -19 21 -19 21 1
14 15 -6 17 -5 9 7 -6 8 -9 28 -7 44 1 17 3 38 3 48 0 9 6 17 12 17 9 0 9 2 0
8 -13 8 -12 29 1 51 6 9 5 12 -1 8 -7 -5 -11 9 -10 41 1 26 4 45 7 43 3 -2 15
1 28 8 17 9 22 9 22 -1 0 -9 3 -9 10 2 6 9 10 11 10 3 0 -7 6 -10 14 -7 11 4
14 -2 11 -25 -3 -24 0 -31 13 -31 15 0 15 -2 2 -10 -8 -5 -11 -10 -6 -10 5 0
2 -8 -5 -17 -12 -14 -12 -16 1 -11 11 4 15 -1 15 -17 0 -16 -5 -21 -15 -17
-12 4 -13 2 -2 -9 15 -17 16 -59 0 -59 -6 0 -3 -7 8 -15 10 -8 13 -14 5 -13
-9 2 -14 -13 -17 -51 -3 -30 -10 -62 -17 -70 -10 -12 -9 -14 6 -8 17 6 16 4
-2 -19 -11 -15 -18 -31 -15 -36 3 -5 1 -14 -4 -21 -6 -7 -12 -23 -14 -37 -1
-14 -9 -29 -15 -35 -18 -14 0 -40 22 -32 9 4 14 11 10 16 -3 6 6 8 22 5 21 -3
24 -2 13 6 -15 9 -14 11 13 14 6 1 11 7 10 14 -2 7 4 9 14 5 11 -4 14 -3 9 5
-4 7 -1 12 8 12 9 0 16 4 16 10 0 5 11 15 24 22 14 7 25 16 25 21 1 4 1 12 1
18 0 5 5 7 12 3 8 -5 9 -2 5 10 -6 14 -3 17 8 12 9 -3 13 -2 10 3 -3 6 3 14
12 20 10 6 14 11 10 11 -5 0 -1 7 7 16 9 8 22 12 28 8 10 -6 11 -4 1 7 -15 16
-17 33 -3 24 6 -3 10 -1 10 5 0 6 4 8 10 5 5 -3 7 0 4 8 -3 8 5 25 18 37 13
13 16 20 8 16 -8 -4 -4 2 10 13 14 11 19 21 12 21 -7 0 -10 5 -7 10 4 6 11 8
16 5 5 -3 6 0 3 8 -3 8 2 17 12 21 14 5 14 9 3 23 -9 11 -10 14 -2 10 8 -5 14
2 19 20 10 49 14 54 26 47 9 -5 10 -4 3 5 -12 13 -7 83 5 76 10 -6 8 15 -3 32
-5 9 -3 11 6 7 16 -6 18 37 2 48 -6 5 -5 8 3 8 7 0 11 4 7 9 -3 5 -1 12 5 16
6 4 7 12 3 18 -11 17 -10 41 2 49 6 5 5 8 -4 8 -11 0 -11 3 0 16 10 13 10 17
-2 25 -12 7 -12 9 1 9 13 0 13 2 1 9 -11 7 -10 10 5 14 18 5 18 5 0 6 -16 1
-17 3 -5 18 12 15 12 16 -1 8 -13 -8 -13 -7 -1 8 7 10 9 17 3 17 -12 0 -11 18
2 39 6 9 5 12 -1 8 -5 -3 -10 0 -10 7 0 8 7 12 16 9 12 -3 12 -2 -1 7 -10 6
-18 18 -18 25 0 20 -10 19 -26 -2 -13 -17 -14 -17 -8 0 6 17 -4 18 -160 17
-91 -1 -166 -5 -166 -10z m-485 -1140 c3 -5 1 -10 -4 -10 -6 0 -11 5 -11 10 0
6 2 10 4 10 3 0 8 -4 11 -10z m1159 -556 c3 -8 2 -12 -4 -9 -6 3 -10 10 -10
16 0 14 7 11 14 -7z m306 -544 c0 -5 -5 -10 -11 -10 -5 0 -7 5 -4 10 3 6 8 10
11 10 2 0 4 -4 4 -10z"/>
<path d="M2052 3083 c8 -10 8 -12 -4 -8 -10 4 -14 -2 -14 -19 0 -14 4 -22 8
-20 13 8 9 -11 -4 -25 -10 -11 -10 -13 0 -7 7 4 12 2 12 -6 0 -8 -6 -20 -12
-27 -9 -10 -9 -12 -1 -7 6 3 14 2 17 -3 3 -5 -2 -12 -11 -15 -12 -5 -14 -9 -5
-18 14 -14 16 -32 4 -24 -5 3 -9 -1 -9 -9 0 -8 4 -12 9 -9 4 3 8 1 8 -5 0 -5
-5 -13 -11 -17 -8 -4 -7 -9 2 -16 11 -8 11 -11 1 -15 -10 -4 -10 -8 0 -21 11
-13 10 -15 -5 -9 -13 5 -16 3 -10 -6 14 -22 9 -77 -7 -77 -13 0 -13 -1 0 -10
13 -9 13 -10 0 -10 -12 0 -12 -2 -2 -9 11 -7 12 -13 1 -32 -25 -49 -27 -57
-18 -66 7 -7 5 -16 -6 -27 -10 -9 -15 -25 -12 -36 3 -11 2 -18 -1 -16 -4 2
-12 -2 -19 -9 -10 -11 -10 -15 0 -18 9 -4 9 -6 -1 -6 -7 -1 -10 -5 -7 -11 3
-5 -2 -10 -12 -10 -11 0 -14 -3 -7 -8 7 -5 7 -14 -1 -29 -7 -13 -16 -20 -21
-15 -5 4 -6 3 -2 -2 8 -10 -20 -67 -40 -79 -7 -5 -10 -12 -8 -16 3 -5 -6 -19
-19 -31 -14 -13 -25 -28 -25 -34 0 -6 5 -4 10 4 5 8 10 11 10 5 0 -5 10 1 21
15 11 14 18 18 14 10 -4 -10 -2 -9 8 2 8 10 18 14 23 10 4 -4 3 0 -4 9 -10 14
-9 16 12 14 19 -2 23 1 19 13 -5 11 -2 14 10 9 11 -4 14 -2 10 9 -3 9 1 14 12
14 10 0 13 5 9 12 -5 7 -2 9 9 5 11 -4 15 -1 12 13 -3 13 1 17 11 13 9 -3 14
0 12 8 -2 8 2 13 9 12 8 -2 10 4 6 14 -4 11 -3 14 5 9 7 -4 12 -2 12 4 0 6 12
22 28 36 15 14 28 30 28 35 1 5 2 14 3 19 0 6 11 15 24 20 13 5 16 9 7 10 -10
0 -7 7 10 21 14 11 18 18 10 14 -10 -4 -9 -2 2 8 10 8 15 17 11 20 -3 4 -1 7
6 7 7 0 9 5 6 10 -3 6 -1 10 5 10 7 0 9 7 6 16 -6 15 -4 15 11 3 12 -10 15
-10 9 -1 -4 7 -2 19 4 27 6 8 8 20 4 26 -4 7 -3 9 3 6 6 -4 16 0 23 8 11 13
10 14 -6 9 -15 -5 -14 -2 5 14 13 10 21 24 17 30 -3 5 1 13 10 16 10 4 14 14
11 26 -3 11 -1 18 3 15 5 -3 14 13 20 35 6 22 15 38 19 35 13 -8 19 41 8 62
-10 17 -9 17 9 3 18 -14 18 -14 5 3 -8 10 -19 16 -25 14 -6 -2 -19 6 -29 17
-10 12 -16 15 -12 9 3 -7 1 -13 -4 -13 -6 0 -14 0 -18 0 -5 0 -8 6 -8 13 0 12
-4 14 -51 16 -20 1 -25 5 -20 17 5 14 4 15 -8 5 -8 -7 -17 -8 -20 -3 -3 5 -17
7 -31 4 -14 -2 -25 0 -25 6 0 5 -13 12 -30 14 -24 4 -27 2 -18 -9z"/>
<path d="M3039 1213 c-13 -16 -12 -17 4 -4 16 13 21 21 13 21 -2 0 -10 -8 -17
-17z"/>
</g>
</svg>
