<?xml version="1.0" encoding="utf-8"?>
<!-- Generator: Adobe Illustrator 22.1.0, SVG Export Plug-In . SVG Version: 6.00 Build 0)  -->
<svg version="1.1" id="Capa_1" xmlns="http://www.w3.org/2000/svg" xmlns:xlink="http://www.w3.org/1999/xlink" x="0px" y="0px"
	 viewBox="0 0 273.4 378.1" style="enable-background:new 0 0 273.4 378.1;" xml:space="preserve">
<style type="text/css">
	.st0{fill:#5A6B5F;}
</style>
<g>
	<g>
		<path class="st0" d="M182.3,218.6c-1.9-0.7-3.9-0.7-5.9-0.4c-0.5,0.1-1-0.2-1.6-0.4c-0.1,0.1-0.4,0.6-0.7,0.7
			c-0.7,0.2-1.9,0-2.1,0.4c-0.4,0.8-0.2,1.8-0.3,2.8c0,0.2,0.2,0.4,0.2,0.6c-0.3,0.2-0.6,0.4-1,0.6c0.5,0.4,0.9,0.8,1.3,1.2
			c-0.1,0.1-0.1,0.2-0.2,0.3c-0.2-0.2-0.4-0.5-0.7-0.9c-0.5,1.2-0.8,2,0.2,3c0.5,0.5,0.6,1.5,0.7,2.2c0.1,0.5,0,1-0.1,1.6
			c-0.5,0.1-1,0.3-1.8,0.5c0.5,0.2,0.8,0.4,1.1,0.5c0,0.1,0.1,0.3,0.1,0.4c-0.5,0.2-1,0.5-1.5,0.5c-0.7,0-1.3-0.3-2-0.2
			c-2.2,0.2-3.7-1.5-5.7-1.9c-0.2,0-0.3-0.4-0.6-0.7c1.1-0.4,2.2-0.7,2.3-2.1c0-0.1,0.7-0.3,1.1-0.4c1.4-0.4,2.9-0.7,4.3-1.1
			c0.3-0.1,0.5-0.7,0.8-1.1c-0.4-0.3-0.8-0.8-1.3-0.8c-0.9-0.1-1.7,0.1-2.6,0.2c-1.7,0-2.3-0.6-2.4-2.3c0-0.5-0.3-1.1-0.6-1.5
			c-0.8-1.3-1.6-2.6-2.5-3.8c0.1-0.2,0.2-0.3,0.3-0.5c0.7,0.4,1.4,0.6,2,1.1c0.9,0.7,1.5,1.4,2.9,1.2c0.3-0.1,1.2,0.9,1.2,1.4
			c0.1,1.2,0.7,1.7,1.7,1.7c1.1,0,1.1-0.9,1.3-1.7c0.2-0.8,0.7-1.5,1.2-2.3c0.6-1.1,0.4-2.1-0.7-2.6c-3-1.2-4.8-3.8-7.1-5.8
			c-0.9-0.8-1.9-1.5-2.8-2.4c-1.6-1.6-3.3-3.2-4.8-5c-1.2-1.5-2-3.2-2.1-5.2c-0.1-1.1-0.6-2.2-0.8-3.3c-0.2-1.3-0.4-2.6-0.3-3.9
			c0.2-2.4-2.4-6.6-5.1-7.9c-1.7-0.8-3.5-1.5-5-2.6c-1-0.7-1.5-2.1-2.2-3.2c-0.3-0.4-0.6-0.8-1-1.2c-0.2-0.2-0.6-0.2-0.6-0.4
			c-0.9-1.9-2.5-1.5-4-1.2c-1.1,0.2-2.3,0.1-3.4,0.2c-0.4,0.1-0.7,0.5-1.1,0.8c0.4,0.3,0.8,0.8,1.1,0.8c1-0.1,2-0.5,3.1-0.7
			c0.6-0.1,1.3-0.2,2-0.3c0,0.7,0.2,1.4,0.1,2.1c-0.2,1.1-0.9,2.4-0.6,3.4c0.8,2.4,1.7,4.9,3.9,6.4c0.3,0.2,0.7,0.4,1,0.8
			c0.3,0.4,0.4,0.9,0.6,1.4c-0.6,0.1-1.1,0.2-1.9,0.4c0.5,0.9,1.1,2,1.7,3c1.3,2.1,1.8,4.3,1.6,6.7c-0.1,1.9,1.3,3,3.3,3
			c1.3,0,2.7,0.3,3.9,0.7c1.6,0.5,1.8,1.7,0.6,2.8c-0.9,0.9-1.8,1.8-2.9,2.6c-0.3,0.3-1.2,0.5-1.3,0.3c-0.4-0.4-0.7-1.1-0.8-1.7
			c-0.1-0.4,0.3-0.9,0.6-1.9c-1.6,0.4-2.8,0.6-4,1.1c-1.2,0.5-2.1,0.1-2.5-1c-0.4-1.3,0.9-1.4,1.7-1.6c0.3-0.1,0.5-0.2,1-0.7
			c-0.2-0.1-0.4-0.1-0.6-0.2c-2.2-1.1-2.1-1-1.5-3.3c0.9-3.3-0.4-6.3-2.2-8.8c-0.7-0.9-2.8-0.7-4.7-1.1c0.9,2.5,1.7,4.5-0.7,6.1
			c-0.3-0.3-0.7-0.5-1-0.9c-2.5-3.5-5.2-6.9-5.3-11.5c-0.1-1.5,0.5-3,0.6-4.5c0.1-1,0.2-2,0-2.9c-0.1-0.5-0.7-1.1-1.3-1.4
			c-0.6-0.4-1.4-0.6-2.2-0.8c-1.7-0.7-2.9-0.2-3.8,1.3c-1.3,2.3-1.6,2.4-3.8,1.1c-0.5-0.3-1.1-0.5-1.7-0.7c-2.9-0.8-4.1-3-4.8-5.7
			c-0.2-0.9-0.5-2-1.2-2.6c-0.4-0.4-1.7-0.5-2.3-0.1c-2.2,1.3-4.5,1-6.8,0.7c-1.1-0.1-1.7,0.2-2,1.1c-0.5,1.7-0.9,3.4-1.6,5
			c-0.3,0.7-1.1,1.2-2,2c-0.2,0.4-0.4,1.3-1,2c-0.8,1-2,0.9-2.7-0.3c-1.3-2.2-2.4-4.6-3.8-6.7c-1.5-2.2-2.5-5-5.3-6.2
			c-0.6-0.3-1.4-0.6-2-0.6c-4.5,0.2-9,0.6-13.4,0.9c-0.3,0-0.9,0.7-0.9,1c0.1,1.1,0.3,2.2,0.7,3.3c0.1,0.3,0.8,0.4,1.3,0.5
			c0.4,0.2,0.9,0.4,1.3,0.6c-0.2,0.4-0.5,0.7-0.7,1.1c-0.3,0.6-0.8,1.3-0.8,1.9c0,2.2,0.2,4.4,0.4,6.6c0.2,1.9,0.7,2.5,2.5,2
			c1.7-0.4,3.2-1.5,4.8-2.3c0.4-0.2,0.7-0.5,1-0.7c2.3-1.4,3.2-3.4,2.7-6.5c-1.4,0.8-2.8,1.7-4.1,2.4c-0.9,0.5-1.8,1-2.7,1.3
			c-1,0.3-1.5-0.3-1.5-1.4c0-1.3-0.1-2.7,0.1-4c0.1-0.6,0.8-1.5,1.2-1.5c0.9,0,0.9,0.8,0.8,1.6c-0.1,0.9-0.1,1.8-0.2,3.1
			c1.9-1.1,3.4-2,4.9-3c1.1-0.7,2.4-1.2,3.2-0.3c0.7,0.8,0.9,2.3,0.7,3.4c-0.4,1.8-0.7,3.4,0.4,5.1c0.2,0.3,0.2,0.9,0.1,1.1
			c-1,1.7-0.3,3.2,0.2,4.8c0.5,1.5,1,3.1,0.9,4.6c0,1.2,0.3,2,1.2,2.6c3,2.2,4.3,5.4,5.5,8.7c0.7,1.9,1.5,3.8,1.8,5.8
			c0.5,3,0.7,6,0.8,9.1c0.1,1.5-1.6,2.5-3,2c-0.3-0.1-0.6-1-0.5-1.1c2-2,0.9-4.3,0.5-6.3c-0.8-3.9-2.2-7.6-3.3-11.4
			c-0.1-0.4-0.4-0.7-0.7-1.2c-1,2.2-2.2,2.2-3.6,0.1c-0.8-1.2-1.6-2.4-1.2-4c0.2-1-0.4-1.5-1.5-1.7c-3.6-0.4-6.6-2.1-9.4-4.4
			c-2-1.6-2.8-4.1-4.8-5.5c-1.3-0.9-2.5-2-3.4-3.3c-1.7-2.3-3.5-4.7-4.7-7.2c-1.5-3-1.4-6.3-0.6-9.5c0.1-0.5,0.1-1.2,0.4-1.6
			c0.3-0.5,1-0.9,1.5-1c0.2-0.1,0.7,0.7,0.9,1.2c0.7,1.4,1.4,2.8,2.5,4.3c0.2-3.4,2.5-3.7,4.9-3.7c4.6-0.1,9.1-1.7,13.7-0.8
			c3.9,0.7,7.3,2.2,9.2,6c1,2.1,2.2,4,3.4,6c0.3,0.5,0.8,0.8,1.2,1.2c0.2-0.2,0.4-0.3,0.4-0.3c0.3-1.9,0.3-3.8,0.8-5.7
			c0.7-2.8-0.4-5.2-1.4-7.7c-0.2-0.6-0.9-1.1-1.4-1.5c-0.8-0.5-1.8-0.8-2.7-1.3c-1-0.6-1.9-1.2-1.4-2.7c0.2-0.5-0.5-1.3-0.9-1.8
			c-2.4-3-4.8-6-7.2-9.1c-0.4-0.5-0.5-1.2-0.9-1.6c-0.6-0.7-1.2-1.5-2-1.7c-2.1-0.4-4.3-0.8-6.4-0.8c-3.4,0.1-6.4-1.1-9.3-2.4
			c-2.4-1.1-4.6-2.6-6.9-3.9c-0.5-0.3-1-0.6-1.5-0.9c-0.1,0.2-0.3,0.3-0.4,0.5c1,1,1.9,2,2.9,3c1,1,1.9,2,2.9,3
			c0.2,0.2,0.3,0.9,0.1,1c-0.2,0.2-0.8,0.4-1.1,0.2c-0.8-0.5-1.7-1-2.4-1.7c-4.1-4.6-9.4-7.3-14.7-10.1c-4.2-2.2-8.3-4.8-11.2-8.5
			c-1.3-1.6-1.9-3.8-2.5-5.8c-0.6-1.9-1-3.9-1.5-5.9c-0.8-3.4-1.5-6.8-2.3-10.2c-0.6-2.7-1-5.4-1.7-8.1c-0.8-2.5-2-4.8-2.9-7.3
			c-1.3-3.7-1.9-7.5-2.1-11.5c-0.1-3.8-0.1-7.6-0.4-11.4c-0.3-4.1-0.7-8.2-1.1-12.3c0-0.5-0.1-1-0.1-1.5c0-5.5-1.3-10.8-2.6-16.1
			c-1.2-4.8-3.7-8.8-6.8-12.6c-1-1.2-2.2-2.3-3.2-3.5c-0.5-0.6-0.6-1.4-0.9-2.1c0.2-0.1,0.4-0.3,0.6-0.4c0.7,0.5,1.5,0.8,2,1.5
			c1.7,2.2,3.5,4.3,5,6.6c2.8,4.4,5.5,8.9,8,13.4c2.5,4.5,5.1,9,7,13.7c2.1,5.1,3.3,10.6,3,16.3c0,0.2,0.1,0.5,0.6,0.7
			c0.3-1.2,0.8-2.3,0.9-3.5c0.3-3.2,0.8-6.5,0.5-9.7c-0.3-3.6-1.4-7.1-2.3-10.6c-1.2-4.3-2.6-8.6-3.9-12.9c-0.1-0.4-0.1-0.8-0.1-1.1
			c0.1,0,0.3-0.1,0.4-0.1c0.2,0.5,0.4,0.9,0.6,1.4c1.6,4.8,3.2,9.7,4.7,14.6c2,6.4,3,12.9,1.3,19.6c-0.8,3.1-1.2,6.3-1.9,9.5
			c-0.1,0.6-1,1-1.5,1.5c-0.3-0.6-1-1.3-1-1.9c0-1.8,0.4-3.5,0.4-5.3c0.1-5.2-0.5-10.4-2.3-15.3c-0.9-2.6-1.8-5.3-3-7.7
			c-1.4-2.8-3.1-5.3-4.6-8c-0.8-1.4-1.5-2.9-2.3-4.3c-0.1,0-0.3,0.1-0.4,0.1c0,0.3,0,0.6,0.1,0.9c1.1,5.5,2.5,10.9,3.3,16.5
			c0.7,4.7,1,9.4,1.3,14.2c0.3,4.8,0.2,9.7,0.7,14.4c0.3,3,1.2,6.1,2.3,8.9c1.6,3.9,3.2,7.7,3.9,11.8c0.5,2.7,1.2,5.4,1.8,8.1
			c0.1,0.5,0.3,0.9,0.8,1.3c-0.3-2.6-0.7-5.2-1-7.8c-0.5-3.5-1.1-6.9-1.4-10.4c-0.2-3.2,0.8-6.3,1.8-9.3c0.8-2.3,1.8-4.6,2.6-6.9
			c0.1-0.3,0.2-0.7,0.4-0.8c2.5-0.9,1.8-3.2,2.1-5c0.7-5,1.3-10,1.6-15c0.2-2.5,0.6-5.1-0.5-7.6c-0.5-1.4-0.2-3.1,0-4.7
			c0.1-0.9,0.9-1.4,1.9-1.1c1,0.3,1.5,1.1,1.2,2c-1.3,4.4,0,8.5,1.1,12.6c0.8,3.2,1.9,6.5,2.2,9.7c0.5,5.9,0.7,11.8,0.5,17.7
			c-0.1,4.2-0.8,8.5-1.6,12.7c-0.5,2.5-1.6,4.9-2.4,7.3c-0.1,0.4-0.4,0.9-0.3,1.2c0.7,1.8-0.2,3.4-0.5,5.1c-0.1,0.6,0.1,1.4,0.4,1.9
			c1.8,2.6,3.8,5,5.5,7.7c2,3.1,3.8,6.2,5.6,9.4c1.6,2.8,4.3,4.2,6.8,6c2.2,1.5,4.6,2.8,7,4c3.7,2,7.7,2.8,12,2.8
			c2.5,0,5.1,0.7,7.6,1.3c0.5,0.1,0.8,1,1.1,1.6c0.4,0.8,0.6,1.7,1.3,2.5c-0.4-2.5,2.4-4.3,1.1-6.9c-0.5-1-0.2-2.3-0.5-3.5
			c-0.2-1.1-0.5-2.2-1.1-3.1c-2.1-3.2-3.5-6.6-3.5-10.5c-0.1-3.4-0.5-6.9-0.6-10.3c0-1,0.4-2,0.7-3c0.7-2.2,1.5-4.4,2.9-6.4
			c1-1.3,1.3-3.2,1.8-4.9c0.6-2.2,1-4.6,1.8-6.8c0.3-1,1.3-0.5,1.7,0.1c0.4,0.6,0.7,1.4,0.7,2.2c0.3,3.4,0.6,6.7,0.6,10.1
			c0,4-0.3,7.9-0.3,11.9c0,4.2,0,8.4,0.5,12.6c0.3,2.1,1.8,4,2.8,6.1c0.1,0.3,0.4,0.6,0.4,0.8c-0.7,2.1,1.1,2.7,2.2,3.4
			c4.4,2.6,6.9,6.7,9.2,11c1.2,2.2,2.4,4.4,3.5,6.7c0.8,1.6,1.4,3.2,1.9,4.8c0.4,1.4-0.4,2.9,0.6,4.3c0.1,0.2-0.3,0.8-0.5,1.1
			c-0.2,0-0.3,0.1-0.5,0.1c-0.5-0.9-1.1-1.7-1.4-2.7c-1.9-5.6-3.9-11.1-6.7-16.4c-1.7-3.2-4-5.3-7-7.2c-3.1-1.9-4.8-4.9-5.7-8.3
			c-0.7-2.8-1.4-5.7-1.7-8.6c-0.2-2.9,0.2-5.8,0.4-8.8c0.2-3.3,0.3-6.7,0.4-10c0-1.2,0-2.4-0.1-3.5c0-0.5-0.1-0.9-0.2-1.4
			c-0.2,0-0.3,0-0.5-0.1c-0.2,0.5-0.4,1-0.6,1.6c-0.5,1.2-0.9,2.5-1.6,3.6c-2,3.1-3.3,6.4-3,10.2c0.2,2.9,0.4,5.8,0.5,8.6
			c0.1,2.6,0.8,5,2.1,7.2c1.5,2.6,2.5,5.2,2.8,8.3c0.2,1.8,0.9,3.4,2.7,4.6c2,1.3,3.5,3.3,5.1,5.1c1.3,1.4,2.7,2.7,3.9,4.2
			c2.1,2.5,4.2,5.1,6.2,7.7c0.2,0.3,0,0.9,0,1.3c-0.4-0.2-1-0.2-1.2-0.5c-3.2-3.5-6.3-7.2-9.6-10.7c-2.2-2.3-4.7-4.3-7-6.5
			c-0.2-0.2-0.5-0.3-0.7-0.5c-1.4,3.4-1,6.9,2.6,7.9c1.3,0.3,2.7,0.7,4,1.2c1.1,0.4,2.1,1,2.2,2.3c0.1,1.5,1.1,3.1,0.1,4.6
			c-0.1,0.1,0.1,0.6,0.2,0.6c0.4,0,0.9,0,1.1-0.2c0.6-0.5,1.1-1.6,1.9-0.9c0.6,0.5,0.6,1.6,0.8,2.4c0.2,0.7,0.4,1.4,0.7,2
			c0.5,1.1,1.1,2.2,1.5,3.4c1.9,1.6,3.2,0.5,4.4-1.6c0.4,0.9,0.6,1.4,0.9,2.1c1.8-0.2,3.6-0.4,5.4-0.5c0.4,0,1,0.2,1.2,0.5
			c0.9,1.4,1.6,2.8,2.4,4.2c0.6,1.1,1,2.2,1.7,3.3c0.3,0.4,1,0.6,1.6,1c0.7-1.9,1.3-3.7,2-5.3c0.7-1.6,2.4-1.9,3.9-2
			c1.4-0.1,2.4,0,2-1.9c-0.1-0.4,0.6-1.1,1-1.6c0.8-0.9,1.8-1.6,0.7-3c-0.2-0.3,0.1-1.4,0.5-1.8c0.7-0.7,0.8-1.1,0.3-2
			c-1.7-3.3-1.2-6.6-0.3-10.1c1-3.9,1.9-7.9,2.7-11.8c0.9-4.5,1.7-9,2.5-13.5c0.2-1-0.3-2.2-0.5-3.2c-0.2-1.5-0.5-3-0.7-4.5
			c-0.2-1.3-0.2-2.7-0.4-4c-0.5-2.9,0.3-5.7,1.1-8.4c0.7-2.5,0.5-4-1.5-5.4c-1.1-0.8-1.8-1.8-2.3-3.1c-0.6-1.5-1.5-2.9-2.4-4.3
			c-2.2-3.9-3.1-8.2-4.3-12.5c-1.3-4.5-1.5-9-2.3-13.5c-1.2-6.4-3.7-12.5-7.2-18.1c-0.6-1-1.5-1.9-2.1-2.8c-0.3-0.5-0.6-1-0.7-1.5
			c-0.3-1.3,0.3-2,1.6-1.4c1.3,0.6,2.6,1.2,3.7,2.2c3.2,2.8,6.4,5.5,8.6,9.2c1.3,2.2,2.5,4.4,2.7,7.1c0.1,2.5,1.1,4.9,1.7,7.3
			c0.1,0.2,0.4,0.4,0.8,0.9c0.1-0.7,0.3-1.1,0.2-1.5c-0.2-2.5,0.2-5,0.6-7.5c0.5-2.6,1.6-4.8,2.9-6.9c0.8-1.4,1.7-2.8,1.4-4.6
			c-0.1-0.5,0.1-1.2,0.4-1.6c2.2-2.5,1.6-5.4,1.5-8.2c0-1.6-0.2-3.2,0.1-4.8c0.5-2.4-0.2-4.6-0.3-6.9c-0.1-2.6,0.4-5.2,0.9-7.8
			c0.5-2.3,0.8-4.5,0.1-6.9c-0.3-1-0.7-2-0.6-3c0-0.7,0.7-1.4,1.1-2.2c1.2,0.9,1.9,1.6,1.5,3c-0.2,0.7,0.1,1.6,0.4,2.4
			c0.9,2.6,1.9,5.1,2.7,7.7c1.2,4,1.1,8.1,0.6,12.1c-0.6,5.4-1.2,10.8-1.9,16.1c-0.1,0.7-0.2,1.4-0.5,2.1c-0.5,1.4-0.9,2.7,0.3,4.2
			c0.5,0.6,0.1,2.2-0.3,3.2c-1,2.7-2.4,5.2-3.4,8c-0.8,2.4-1.6,4.9-1.8,7.5c-0.1,1.8,0.7,3.7,1.2,5.5c0.7,2.6,2.2,5.1,2.3,7.6
			c0.2,4.6,2,8.8,3.3,13.1c2.2,7.3,3.7,14.6,3,22.3c-0.4,4.9-1,9.9-2.6,14.6c-0.4,1.3-0.8,2.6-1.1,3.9c-0.1,0.4-0.1,0.7-0.1,1.2
			c1.7-1.1,3.2-2.1,4.8-3c0.6-0.3,1.3-0.7,1.9-0.6c1.8,0.2,3.3-0.7,4.9-1.2c1.8-0.6,3.7-1,5.5-1.6c1.2-0.4,2.4-0.9,3.5-1.5
			c2.9-1.7,5.7-3.3,8.4-5.2c1.6-1.1,2.6-2.7,2.6-4.8c0.1-6.8-0.7-13.5-2.4-20.2c-0.4-1.8-0.6-3.7-1-5.5c-0.2-1.1-0.6-2.2-0.9-3.3
			c-0.1-0.4,0-0.8,0-1.2c0.4,0.2,1,0.2,1.3,0.6c0.8,1.1,1.6,2.2,2.2,3.3c2.5,4.1,5.1,8.1,7.3,12.3c2.1,4,3.9,8.2,2.8,12.9
			c-0.6,2.5-1.5,4.9-2.4,7.3c-2,5.5-6.7,8.3-11.1,11.3c-2.2,1.6-4.4,3.2-6.8,4.5c-1.5,0.8-2.8,1.8-3.9,3.1c-1.6,1.8-2.4,3.8-1.7,6.2
			c0.4,1.3-0.1,2.5-1.1,3.7c-1.6,1.8-3.6,2.8-6,3.3c-2.1,0.4-4,4.1-3.2,6.1c0.7,2,0.6,3.9-0.2,5.8c-0.7,1.8-1.3,3.8-1.2,5.6
			c0,1.3,1,2.9,2,3.8c1.7,1.6,3.8,2.7,5.8,4.1c1.6,1.2,2.8,2.8,4.1,4.2c1.8,2,1.5,3.8,1.4,5.9c-0.1,1.1,0.5,2.3,0.8,3.4
			c0.3,1.3,0.3,2.6,0.6,3.9c0.2,0.8,0.7,1.6,1.2,2.3c0.6,0.8,1.3,1.5,2,2.1c2.1,1.9,4.1,3.9,6.4,5.6c2.2,1.6,4.7,2.8,7.1,4.3
			c0.6,0.4,1.1,1.1,1.7,1.5c1.4,0.9,2.9,1.7,4.3,2.6C180.7,217,181.4,217.9,182.3,218.6L182.3,218.6z M137.4,11
			c-0.4,1.5-0.8,2.6-0.9,3.8c-0.2,2.1-0.4,4.2-0.3,6.2c0.1,2,0.7,4,0.7,6c0.1,2.2-0.1,4.4-0.3,6.6c-0.1,1.6-0.1,3.3-0.7,4.8
			c-1.3,3.4-3.1,6.6-4.5,9.9c-0.7,1.6-1.4,3.2-1.7,4.9c-0.5,3.1-0.7,6.2-1.2,9.3c-0.1,0.8-1.1,1.4-1.6,2.2c-0.6-0.5-1.6-0.9-1.8-1.6
			c-0.6-1.6-0.8-3.3-1.2-4.9c-0.6-2.5-0.9-5.2-1.8-7.6c-1.8-5.1-5.8-8.5-9.8-11.9c-0.2-0.1-0.5-0.1-0.6-0.2c1.4,2.7,2.9,5.3,4.2,8.1
			c0.8,1.7,1.4,3.5,2,5.3c0.7,2,1.4,4.1,1.8,6.2c0.8,3.9,1.3,7.9,2,11.8c0.2,1.1,0.5,2.2,0.8,3.3c0.7,2.3,1.2,4.6,2.1,6.8
			c1,2.4,2.5,4.6,3.5,7c0.8,1.9,1.8,3.5,3.4,4.8c0.5,0.4,0.8,1,1.1,1.6c0.7,1.9,0.4,3.8-0.1,5.8c-0.4,1.9-0.8,3.8-0.8,5.7
			c0,1.9,0.5,3.8,0.6,5.7c0.1,1.7-0.1,3.5,1.3,4.9c0.2,0.2,0.3,0.7,0.2,1c-0.5,2.6-1,5.2-1.5,7.9c-0.3,1.3-0.9,2.6-0.9,3.9
			c-0.3,4.6-0.8,9.2-2.3,13.6c-0.5,1.4-1,2.8-1.3,4.3c-0.4,1.9-0.3,3.9,0.7,5.9c1.3-2.6,2.5-4.9,3.6-7.2c0.6-1.2,1.3-2.4,1.6-3.6
			c0.7-2.4,1.2-4.9,1.6-7.3c0.4-2.2,1.6-4.5,0.4-6.9c0.5,0.6,1,1.2,1,1.9c0,1.4-0.1,2.9-0.4,4.3c-0.4,2.2-1.4,4.3-1.5,6.4
			c-0.1,1.9-0.8,3.6-1.5,5.3c-0.3,0.7-0.6,1.5-0.9,2.2c0.1,0.1,0.3,0.2,0.4,0.3c0.4-0.4,0.8-0.8,1-1.3c0.7-1.7,1.2-3.5,1.8-5.2
			c0.4-1.2,1-2.5,1.3-3.8c0.7-2.7,1.2-5.4,1.8-8.1c0.8-3.5,1.8-6.9,2.3-10.3c1-6,0.8-11.9-0.4-17.8c-0.5-2.3-1.2-4.4-1.9-6.6
			c-0.6-2.1-0.9-4.4-2.8-6c-0.3-0.2-0.4-0.8-0.4-1.3c-0.1-2.2,0.1-4.4-0.2-6.6c-0.3-2.2-1-4.3-1.7-6.4c-1-3.1-2.8-6-2.1-9.5
			c0.5-2.1,0.9-4.3,1.4-6.4c0-0.1,0.1-0.3,0.2-0.4c1.2-2.6,2.5-5.2,3.6-7.8c0.2-0.6,0-1.4-0.1-2.1c-0.1-1-0.5-2-0.3-2.9
			c0.3-1.9,1-3.8,1.3-5.7c0.4-2.3,0.5-4.7,0.7-7.1c0.4-4.1,0.9-8.2,1.1-12.3C139.3,16.8,139.3,13.8,137.4,11z M30.9,101.7
			c5.1-9.1,7.7-25.7,5.4-41.8c-0.4-2.9-0.9-5.8-2.3-8.5c-0.3,0.4-0.5,0.8-0.6,1.2c-0.4,3.7-0.8,7.5-1.2,11.2c-0.1,0.7,0.2,1.3,0.3,2
			c0.5-0.4,1.1-0.7,1.6-1.2c0.7-0.6,1.3-1.1,1.9,0c0.7,1.4,0,3.7-1.2,4.6c-1.7,1.3-3.6,2.4-3.6,5.1c0,0.8-0.4,1.5-1.6,1.1
			c-0.3-0.1-1.1,0.3-1.3,0.6c-0.5,1.1-1,2.3-1.3,3.5c-0.1,0.5,0.1,1.1,0.1,1.5c-2.3,3.6-0.9,7.3-0.9,10.9
			C26.3,95.8,28.3,98.8,30.9,101.7z M119.7,169.4c0.7,0,1.2,0,1.6-0.1c1.7-0.5,3.2-0.4,4.8,0.4c0.7,0.3,1.6,0.3,2.4,0.3
			c1.3,0,2.7-0.4,4-0.3c2.7,0.2,4.9-0.3,6-3c0.1-0.3,0.5-0.6,0.9-0.8c2.1-1.3,2.1-1.3,1.5-3.6c-0.1-0.3-0.3-0.7-0.3-1
			c0.4-2-1-2.3-2.4-2.6c-1.4-0.3-2.8-0.8-4.3-1.2c-1.3-0.3-2.5-0.7-3.8-0.8c-0.9-0.1-1.5,0.4-1.2,1.6c0.2,0.6,0,1.4-0.2,2.1
			c-0.5,1.5-1.1,2.9-1.6,4.4c-0.4,1.2-1.1,1.8-2.3,1.9C122.7,166.6,121.2,167.5,119.7,169.4z M166.6,125.6c-0.1-0.1-0.2-0.2-0.3-0.4
			c-0.3,0.1-0.6,0.1-0.8,0.3c-1.8,1.1-3.5,2.5-5.5,3.1c-4.6,1.3-8.9,3.9-13.8,4.1c-0.2,0-0.4,0.1-0.6,0.2c-2.7,1.4-5,3-6,6.1
			c-0.3,1-0.3,1.7,0.6,2.1c0.5,0.2,1.4-0.2,1.8-0.6c2-1.8,4.2-3.4,6.9-4c1.7-0.4,2.5,0.3,1.8,1.8c-1,2.1-2.5,3.9-3.7,5.9
			c-0.2,0.4-0.4,0.9-0.6,1.3c0.1,0.1,0.3,0.2,0.4,0.3c2.6-2.1,5.3-4.1,7.8-6.2c1.4-1.2,2.9-2.3,4.1-3.7c0.9-1.1,2.1-2.6,2-3.8
			c-0.2-1.5,0.5-1.9,1.3-2C164.7,129.5,165,126.9,166.6,125.6z M176.5,121.2c0.4-1.1,0.7-2,1-2.9c1.5-4.3,1.7-8.5-0.5-12.7
			c-1.8-3.4-3.5-6.8-5.3-10.1c-0.9-1.7-2.1-3.2-3.2-4.8c1.4,8.7,4.6,17.1,4.1,26c0.2,0.1,0.3,0.1,0.5,0.2c0.9-1.2,1.9-2.3,2.8-3.5
			c0.1,0.1,0.3,0.2,0.4,0.3c-2.6,4.2-5.3,8.3-7.9,12.5c0.2,0.1,0.4,0.3,0.6,0.4c0.6-0.6,1.3-1.2,1.8-1.8c1-1.2,1.8-2.5,2.7-3.8
			C174.7,119.4,174.9,119.4,176.5,121.2z M42.1,122c0.1-0.1,0.2-0.3,0.3-0.4c-0.1-0.2-0.1-0.4-0.2-0.6c-2.9-4.2-5.9-8.4-8.7-12.7
			c-0.6-0.9-1.2-1.5-2.4-1.4c-1.4,0.1-1.9-0.9-1.4-2.4c0.1-0.3,0.3-0.8,0.2-1c-0.8-1.4-1.7-2.9-2.6-4.4c-0.3,0.3-0.4,0.4-0.4,0.5
			c0.2,3.4,0.4,6.8,0.6,10.3c0,0.2,0.1,0.4,0.2,0.6c1.4,1.5,2.8,3,4.3,4.4c1.5,1.4,3.1,2.7,4.8,3.9C38.4,119.9,40.3,120.9,42.1,122z
			 M128.6,152.9c0,1.4,0.8,1.2,1.5,1.1c0.8-0.1,1.6-0.5,2.3-0.3c2.1,0.6,4.1,1.3,6,2.3c2.7,1.3,3.4,1.3,5.4-1
			c0.3-0.4,0.2-1.2,0.3-1.9c-0.6,0.2-1.2,0.2-1.7,0.5c-0.7,0.5-1.2,1.3-2,1.9c-0.3,0.2-1,0.2-1.3,0c-0.2-0.2-0.3-0.9-0.2-1.2
			c0.4-0.9,0.9-1.8,1.4-2.6c1-1.5,1.9-3,1.4-5.1c-2,0.4-3,2-4.2,3.3c-0.4,0.4-0.9,0.7-1.3,1c-0.1-0.1-0.2-0.2-0.4-0.3
			c0.1-0.6,0.1-1.2,0.2-1.6c-1.9-1.7-2.7-0.2-3.8,1.1C131.4,151.3,130.9,153.3,128.6,152.9z M47.8,130.3c0.1-0.2,0.3-0.4,0.4-0.6
			c-0.4-0.5-0.7-1-1.1-1.4c-1.3-1.1-2.7-2.2-4.1-3.3c-2.1-1.8-4.3-3.2-7-3.6c-0.3-0.1-0.7-0.4-1-0.6c-2.4-2.3-4.7-4.6-7.1-6.9
			c-0.1,0-0.2,0-0.6,0c0.3,0.9,0.5,1.8,0.9,2.6c1.5,3.1,4.2,5.3,7,7C39.3,126,43.6,128.1,47.8,130.3z M79.3,189
			c0.1-0.1,0.2-0.2,0.4-0.3c-0.3-0.9-0.6-1.8-0.9-2.8c-0.3-1.1-0.7-2.3-0.9-3.4c-0.3-1.9-0.9-2.3-2.4-1c-1.4,1.2-2.8,2-4.7,2.1
			c-0.3,0-0.8,0.4-0.8,0.6c0.1,0.3,0.3,0.7,0.6,0.9c0.4,0.3,1,0.4,1.4,0.7C74,187.8,76.8,188.1,79.3,189z M133.7,177.5
			c-0.4,0.1-0.7,0.1-1.1,0.2c-2.1,0.4-2.2,0.5-1.8,2.5c0.3,1.8,0.8,3.6,1.3,5.4c0.1,0.4,0.7,0.9,1,1c1.8,0.1,3.6,0,5.4,0
			C134.9,184.8,134.6,181,133.7,177.5z M57.9,165.1c-0.7,3.2,3.1,10.5,5.8,11c0-1.5,0.1-3-0.1-4.5c-0.1-0.7-0.6-1.3-1.1-1.8
			c-1.1-1.2-2.4-2.4-3.6-3.5C58.7,165.9,58.4,165.6,57.9,165.1z M149.9,137.7c-3.4,0.2-8.1,5-7.5,7.2c1.1-0.2,2.2-0.5,3.5-0.8
			C147.1,142.2,148.5,140,149.9,137.7z M152.3,142.8c-0.2-0.1-0.4-0.3-0.6-0.4c-2.4,2.4-4.7,4.8-7.1,7.2c-0.5,0.5-0.9,1.3,0,1.8
			c0.9,0.6,1.5,0.3,2.1-0.6c1.5-2.2,3.2-4.3,4.7-6.4C151.8,143.9,152,143.3,152.3,142.8z M90.6,152.6c0.1-0.7,0.2-1.4,0.1-1.9
			c-0.1-0.3-0.7-0.8-0.9-0.8c-1,0.3-1.7-0.1-2.3-0.8c-0.3-0.3-0.7-0.4-1.2-0.7C86.3,150.2,88,151.8,90.6,152.6z M152.5,147.1
			c-0.2-0.1-0.4-0.1-0.6-0.2c-0.2,0.4-0.3,0.9-0.6,1.2c-0.6,0.6-1.3,1.1-1.9,1.6c-0.4,0.3-1,0.3-1.3,0.6c-0.2,0.2-0.1,1,0,1.1
			c0.6,0.1,1.3,0.3,1.7,0.1c0.8-0.6,1.6-1.3,2.2-2.1C152.4,148.7,152.4,147.8,152.5,147.1z M161.2,134.7c0.1,0.1,0.2,0.2,0.3,0.2
			c1.7-1.2,3.5-2.4,5.2-3.6c-1.2,0.1-2.3,0.1-3.4,0.2c-0.2,0-0.5,0.3-0.7,0.6C162.1,133,161.6,133.8,161.2,134.7z"/>
		<path class="st0" d="M182.3,218.7c0.6,0.7,1.5,1.4,1.8,2.2c0.7,1.8,1.2,3.8,1.7,5.7c0.4,1.6,0.4,3.3-0.9,4.4
			c-1.9,1.7-1.8,3.9-2.4,6c-0.6,2.2-0.9,4.5-3,5.8c-0.9,0.6-2,0.9-3,1.3c-1.2,0.4-2.5,0.6-3.6,1.2c-1.8,0.9-3.4,1.2-5-0.2
			c-0.3-0.3-1-0.5-1.4-0.4c-4.9,0.6-9.7-0.4-14.5-1.2c-0.8-0.1-1.7-0.1-2.5-0.1c-2.6-0.2-5.4,0.1-7.8-0.7c-2.6-0.9-5.1,0.2-7.5-0.6
			c-1.8-0.6-3.5-1.3-5.3-1.8c-1.4-0.3-2.9-0.6-4.3-0.5c-1.9,0.2-3.8,1-5.7,1.3c-1.2,0.2-2.6,0.2-3.8,0.1c-0.9-0.1-1.4,0.2-1.5,1.1
			c-0.1,1.7-0.3,3.4-0.3,5.1c0,0.5,0.4,1.1,0.7,1.6c0.4-0.2,0.9-0.4,1.2-0.7c3.6-2.9,6.1-3.2,9.9-1.3c1.2,0.6,2.5,1.1,3.7,1.4
			c1.7,0.4,3.5,0.6,5.2,0.5c1.3-0.1,2.6-0.6,3.7-1.3c1.7-1,3.3-1,4.9-0.2c2.2,1.1,4.3,1.4,6.4-0.2c0.9-0.7,1.5,0,1.9,0.6
			c0.5,0.8,1,1.6,1.9,2.4c0.1-0.4,0.1-0.9,0.3-1.3c0.3-0.9,0.5-2.1,1.8-2c1.2,0.1,1.5,1,1.7,2.2c0.5,3.3,1.1,6.7,1.8,10
			c0.6,2.6,1.3,5.2,2.2,7.7c0.4,1.1,1.3,2.3,2.2,3c2.1,1.4,2.9,3.3,2.8,5.6c0,1,0.2,1.5,1,2c1.1,0.6,1.4,1.5,0.9,2.7
			c-1.5,4.4-2.8,9-4.4,13.3c-1.5,4-3.6,7.8-5.1,11.8c-1.2,3.1-2,6.3-2.8,9.5c-1.4,5.5-3.5,10.8-6.4,15.7c-0.7,1.1-1.4,1.4-2.9,0.8
			c-3.3-1.2-6.7-2.1-10.1-2.6c-4.3-0.7-8.5-1.8-12.3-3.9c-2.2-1.2-4.6-2.2-5.3-5.1c-0.2-0.8-0.1-1.7-0.4-2.4c-0.7-2-1.4-4-2.2-5.9
			c-0.1-0.4-0.7-0.7-1.1-0.8c-2.5-0.8-4-2.7-5.7-4.6c-1.6-1.8-3.5-3.3-5-5.2c-1.3-1.6-2.2-3.4-3-5.3c-0.9-2.1-1.8-4.4-2.3-6.7
			c-0.6-2.6-0.9-5.2-1.3-7.9c-0.2-1.7-0.2-3.5-0.3-5.3c-0.1-3.3,0.4-6.4,1.6-9.5c0.1-0.3,0.3-0.7,0.3-1c-0.5-5,0.6-10,0.9-14.9
			c0.2-5.5,0-11,0-16.5c0-1.6,0-3.2-0.4-5c-0.5,0.6-1,1.2-1.4,1.9c-1.7,3-3.3,6.1-5.2,8.9c-1.7,2.6-3.7,4.9-5.7,7.3
			c-1.2,1.4-2.7,2.7-3.9,4.1c-0.3,0.3-0.5,0.9-0.4,1.2c0.5,2,0.9,4,1.6,5.8c0.8,2.3,2.2,4.5,2.8,6.8c1.6,6.2,3,12.4,4.4,18.6
			c1.4,6.1,2.3,12.3,2.4,18.5c0,2.6-0.4,5.1-0.6,7.7c-0.3,2.8-0.6,5.6-0.9,8.4c-0.1,0.9-0.3,1.8-0.4,2.8c-0.2,2-0.3,4,1.4,5.6
			c0.5,0.4,0.6,1.2,0.6,2c-0.7-1-1.3-2-2.2-3.4c-0.5,2.5-1,4.7-1.5,6.9c-0.3,1.3-0.9,2.6-1.2,4c-0.2,1.3-0.2,2.6-0.2,3.9
			c0.2,4.1,0.5,8.1,0.6,12.2c0.1,4.2,0,8.3,0,12.5c0,1.2-0.2,2.5,0,3.6c0.1,0.6,0.7,1.5,1.3,1.7c2.6,0.9,5.2,1.8,7.8,2.2
			c3.9,0.5,7.8,0.4,11.6-0.8c1.4-0.5,2.8-1.1,4.2-1.7c1-0.4,0.8-1.1,0.3-1.9c-2.1-3.2-4.3-6.3-6.3-9.5c-2.2-3.5-4.2-7.2-6.3-10.8
			c-0.3-0.6-0.5-1.4-0.7-2c-2.1-4.8-4.2-9.5-6.3-14.2c-0.1-0.3-0.2-0.7,0-1.1c3.2,6.6,5.9,13.4,9.6,19.8c3.6,6.3,8.1,12.2,12.3,18.4
			c1.3-1,2.4-1.7,3.4-2.6c0.2-0.2,0.3-0.9,0.1-1.3c-0.4-1.2-1.2-2.4-1.4-3.6c-0.5-3.2,0.3-4.5,3.3-6.2c2.1-1.2,4.3-1.5,6.4-1.1
			c3.9,0.7,6.1-1.3,8-4c2-2.9,3.9-5.8,4.7-9.4c0.3-1.2,0.9-2,2.2-2.3c0.8-0.2,1.4-0.9,2.2-1.1c0.5-0.1,1.2,0.1,1.8,0.2
			c-0.1,0.6,0,1.6-0.4,1.8c-2.9,1.8-4.3,4.6-5.5,7.7c-0.5,1.2-1.2,2.3-1.9,3.7c1.6,0.1,2.3-0.6,3.1-1.4c1.7-1.9,3.5-3.7,5.2-5.6
			c0.4-0.5,0.7-1.1,1.1-1.6c0.3-0.4,0.5-0.8,0.8-1.2c0.3,0.5,1,1,0.9,1.5c-0.1,2.7-1.4,4.8-3.4,6.6c-0.9,0.8-2.2,1.3-3.3,1.9
			c-0.5,0.3-1,0.7-1.3,1.2c-0.5,0.7-0.9,1.4-1.3,2.1c-0.7,1.2-1.7,1.4-2.9,1c-2.1-0.6-4,0-5.5,1.5c-2.7,2.7-5.3,5.5-8.1,8.2
			c-0.9,0.9-0.5,1.6,0.1,2.2c2.7,2.9,2.1,6.4,1.4,9.8c-0.5,1.9-2.3,2.5-4.1,1.6c-2.3-1.2-3.9-3.2-5.1-5.4c-0.5-0.9-0.9-1.3-2-0.7
			c-3.4,2-7.2,3.1-11.2,3.3c-2.4,0.1-4.8,0.3-7.1,0c-1.7-0.2-3.3-1-4.9-1.6c-0.6-0.2-1.2-0.4-1.9-0.6c-0.1,0.2-0.2,0.4-0.2,0.6
			c0.7,0.4,1.5,0.9,2.2,1.3c-0.7,1.5-1.8,2-2.9,1.1c-1.4-1.2-2.9-2.6-3.8-4.1c-2.2-3.6-4.2-7.3-6.2-11c-1.3-2.4-2.3-4.8-3.5-7.2
			c-1.2-2.6-2.6-5.1-3.6-7.8c-2-5.5-4-11-5.7-16.6c-1.9-6.2-3.3-12.5-5-18.8c-0.2-0.9-0.6-1.7-1.3-2.6c0.2,1.6,0.3,3.2,0.7,4.8
			c0.3,1.1-0.1,1.8-1.1,2c-1.1,0.2-1.2-0.7-1.3-1.5c-0.2-2.4-0.3-4.8-0.7-7.1c-0.5-2.9-1.6-5.7-2.1-8.5c-1-5.6-1.6-11.2-1.1-16.9
			c0-0.5,0-1.1-0.3-1.7c-0.4,1-0.9,1.9-1.3,2.9c-0.4,1-1.1,1.4-1.9,0.9c-0.4-0.2-0.7-1.3-0.5-1.8c0.6-1.4,1.5-2.6,2.3-3.9
			c0.4-0.7,1-1.3,1.2-2c0.5-1.7,0.8-3.5,1.1-5.3c0.4-2.2,0.9-4.4,1.2-6.6c0.5-3.5,0.8-7.1,1.4-10.5c0.6-3.3,1.5-6.6,2.3-9.9
			c0.3-1.3,1.1-1.7,2.3-1.1c0.9,0.5,1.2,0.1,1.5-0.8c1.6-4.7,3.3-9.4,4.8-14.1c1.7-5.3,3.4-10.6,5-15.9c0.5-1.8,0.6-3.6,1-5.5
			c0.2-0.7,0.6-1.4,1-2.1c0.4,0.9,1.4,1.8,1.2,2.5c-0.8,3.7-1.8,7.4-2.9,11c-0.8,2.6-2.1,5.2-2.8,7.8c-1,3.8-1.6,7.7-2.3,11.6
			c-0.1,0.4-0.2,1-0.4,1.1c-2.7,0.9-2.5,3.7-3.5,5.7c-0.7,1.4-1.1,2.9-1.5,4.4c-1.5,4.6-3.1,9.2-4.3,13.8c-1,3.6-1.3,7.4-2.1,11
			c-1,4.3-0.4,8.5-0.3,12.8c0.1,2.9,0.8,5.7,1.3,8.6c0.2,0,0.5,0,0.7-0.1c0-2.3,0-4.6,0-7c0.2,0,0.3,0,0.5,0c0.1,0.5,0.1,1,0.1,1.6
			c0.1,3.7,0.1,7.4,0.5,11.1c0.3,2.3,1.2,4.4,1.9,6.6c0.9,2.9,1.8,5.7,2.5,8.6c2,7.5,3.8,15.2,6,22.6c1.1,3.6,2.9,7,4.4,10.5
			c0.1,0.3,0.5,0.7,0.8,0.7c1.3,0.1,1.8,1.1,2.3,2c1.9,3.7,3.7,7.5,5.7,11.2c0.8,1.6,1.9,3,3,4.5c0.2,0.3,0.6,0.6,1.1,1
			c0.1-0.6,0.3-0.9,0.3-1.3c-0.1-5.1-0.1-10.2-0.2-15.3c0-2.6,0-5.2-0.2-7.8c-0.4-5.4-1-10.7-1.6-16.1c-0.3-3.4-0.5-6.8-0.9-10.2
			c-0.4-3.8-0.9-7.6-1.4-11.4c0-0.4-0.2-0.8-0.1-1c0.3-0.5,0.8-1,1.2-1.4c0.3,0.5,0.8,0.9,0.9,1.4c0.3,2.9,0.5,5.9,0.8,8.8
			c0.3,2.9,1.8,5.3,3.9,7.8c0.3-2.6,0.7-4.8,0.8-7c0.2-5.6,0.7-11.1,0.4-16.7c-0.3-4.7-1.6-9.3-2.5-13.9c-0.7-3.4-1.5-6.8-2.1-10.3
			c-1-5.5-3.2-10.4-5.9-15.2c-0.6-1.2-1.2-2.4-1.4-3.7c-0.4-2.5,1.2-4.2,3-5.3c2.9-1.8,4.7-4.6,6.8-7.1c3.3-4,5.5-8.8,7.7-13.5
			c0.6-1.3,1-2.7,1.5-4.1c0.5-1.3,1-2.7,1.7-4c0.2-0.3,1-0.6,1.3-0.5c0.4,0.1,0.7,0.8,0.7,1.2c-0.1,2.9-0.9,5.8,0,8.8
			c0,0.1,0.1,0.2,0.1,0.3c-0.3,1.5-0.4,3-0.1,4.6c0.4,1.7-0.2,3.7-0.3,5.5c-0.1,2.1,0,4.3-0.1,6.4c-0.1,1.8-0.4,3.7-0.6,5.5
			c-0.1,1.4-0.2,2.8-0.3,4.2c-0.2,2.6-0.4,5.2-0.3,7.8c1.1-3,1.2-6.4,3.1-9.1c-0.9,6.1-3.3,11.9-2.7,18.2c-0.2,0-0.5,0.1-0.7,0.1
			c-0.2-0.6-0.5-1.2-0.6-1.8c-0.1-0.6-0.2-1.2-0.2-1.9c-0.1,0-0.3,0-0.4,0c-0.1,0.3-0.3,0.5-0.4,0.8c-0.7,3.2-0.5,6.4-0.1,9.7
			c0.3,2.7,0.4,5.4,0.7,8.1c0.1,1,0.4,1.9,0.7,2.8c0.6,1.7,1.4,3.3,2.1,5c1.2,2.9,2.8,5.5,5.4,7.4c0.9,0.7,1.6,1.8,2.5,2.5
			c1.4,1.2,2.8,2.5,4.5,3.2c1.3,0.6,2.2,1.3,2.6,2.4c1.1,2.7,2.4,5.3,2.7,8.3c0.1,0.9,0.8,2.1,1.5,2.5c2.2,1.3,4.6,2.8,7,3.5
			c3.7,1.1,7.6,1.5,11.3,2.3c1.9,0.4,3.8,1,5.7,1.4c0.5,0.1,1.3-0.1,1.5-0.5c2.5-4.3,4.7-8.9,5.8-13.8c1.7-8,5.1-15.4,8.2-22.9
			c1.4-3.3,2.3-6.9,3.3-10.4c0.2-0.6-0.3-1.3-0.4-1.9c-0.3-1.3-0.8-2.6-0.8-3.8c0-1.8-0.4-3.2-2-4.2c-2.6-1.6-3.1-4.5-3.8-7.2
			c-0.9-3.4-1.7-6.9-2.7-10.7c-0.3,0.6-0.5,1.1-0.8,1.4c-0.4,0.5-0.9,0.8-1.4,1.2c-0.5-0.6-1.2-1-1.4-1.7c-0.5-1.4-0.8-2.9-1.2-4.4
			c-2.5,0.9-4.7,1.4-7-0.1c-1.5-1-3-0.9-4.5,0.1c-2,1.3-4.1,2.2-6.5,1c-0.4-0.2-0.8-0.2-1.2-0.2c-2.4,0.2-4.4-0.8-6.5-2
			c-3.3-1.9-7.2-0.6-8.8,3.2c-1.1,2.5-2.2,5.1-1.8,8c0.1,1-0.6,2.1-1.1,3.1c-0.2,0.3-0.9,0.7-1.1,0.6c-0.5-0.3-1.1-0.8-1.2-1.3
			c-0.3-3.2-0.4-6.3-0.5-9.5c0-0.4,0-0.8,0.2-1.1c1.7-2.1,0.9-4.5,1.1-6.8c0.1-1,0.3-1.9,0.3-2.9c0-0.6-0.4-1.1-0.7-1.7
			c-0.1-0.2-0.6-0.2-0.8-0.4c-1.2-1.3-2.1-0.9-3.1,0.3c-0.5,0.7-1.1,1.1-1.9,0.3c-0.8-0.7-0.6-1.4,0-2.2c1.5-1.7,2.9-3.5,4.3-5.2
			c0.2-0.3,0.3-0.6,0.4-0.8c-1.5-0.6-3-1.1-4.2-1.8c-0.5-0.3-0.6-1.3-0.9-2c0.8-0.3,1.6-0.7,2.3-0.7c1.9,0.1,3.7,0.4,5.5,0.5
			c1.1,0.1,2.2,1,2,2.1c-0.2,1.2,0.4,1.8,1.3,2.4c2.1,1.2,4.4,2.3,6.3,3.9c1.3,1.1,2.5,0.2,3.8,0.6c1.6,0.6,3.3,0.9,5,1.4
			c2.5,0.7,5.1,1.2,7.7,0.9c1-0.1,2.1,0.2,3.1,0.4c1.8,0.3,3.5,0.8,5.3,1c3.6,0.4,7.1,0.6,10.7,0.9c3.8,0.2,7.6,0.4,11.5,0.6
			c0.7,0,1.4-0.1,2.1-0.4c0.3-0.1,0.4-0.7,0.6-1c-0.4-0.1-0.8-0.3-1.2-0.3c-0.6,0.1-1.1,0.5-1.7,0.6c-0.5,0.1-1.1,0-1.7-0.1
			c-0.1-0.2-0.2-0.4-0.2-0.6c0.6-0.3,1.1-0.5,2-1c-2.8-1-1.4-2.3-0.8-3.6c-0.7,0-1.2-0.1-1.6-0.1c-2.2-0.2-4.4-0.3-6.5-0.7
			c-1.7-0.3-3.3-0.2-5,0.4c-0.9,0.3-3-0.3-3.5-1.1c-0.5-0.9-0.1-1.5,0.9-1.7c2-0.3,4-0.5,6-0.7c0.6,0,1.2,0.4,1.7,0.5
			c3.7,1.1,7.5,1.6,11.4,1.3c-0.4,1.2-0.8,2.3-1.2,3.5c1.5,0.2,2.3-2.2,4-0.8c-1.6,0.9-3.1,1.7-4.7,2.5c0.1,0.2,0.1,0.4,0.2,0.6
			c0.5,0,1.2,0.3,1.5,0c1.1-0.7,1.4-0.1,1.8,0.7c0.3,0.6,0.9,1.1,1.1,1.3c0.9-0.2,1.7-0.3,2.4-0.6c0.9-0.5,1.9-1,2.6-1.7
			c0.7-0.7,1.4-1.2,1.4-2.6c0.1-2.1,1.2-4.2,1.8-6.4c-1.8,0.2-0.3-1.3-0.7-2c1.6,0.4,1.8-0.3,1.4-1.6c-0.2-0.7,0.1-1.6,0-2.3
			C183,222.5,182.6,220.6,182.3,218.7C182.3,218.6,182.3,218.7,182.3,218.7z M130.4,356.2c-0.1-0.1-0.2-0.3-0.3-0.4
			c-1.4,0-2.8-0.1-4.1,0c-4.6,0.5-5.5,3-4,6.5c0.4,1,1.1,1.1,1.9,0.3c1.2-1.2,2.6-2.4,3.8-3.6C128.6,358.1,129.5,357.1,130.4,356.2z
			 M125.5,372.4c0.6-2.2-1.1-3.7-2.6-5.2c-1.2,0.6-2.3,1.2-3.5,1.9c-0.8,0.4-0.9,1.1-0.4,1.8c1.2,1.4,2.4,2.8,3.7,4.1
			c0.4,0.4,1.4,0.5,2,0.3c0.3-0.1,0.5-1,0.6-1.6C125.5,373.3,125.4,373,125.5,372.4z M87.7,317.2c-0.8,1.6,0.1,13.1,1.2,14.2
			c0.4-2.3,0.4-4.5,1.2-6.5C91.3,321.6,88.5,319.9,87.7,317.2z M119,238c0-0.2,0.1-0.4,0.1-0.5c-1.4-0.6-2.8-1.1-4.1-1.9
			c-2.3-1.3-2.5-1.3-3.7,0.8c-0.2,0.3-0.2,0.8-0.3,1.2c0.5,0,1,0.2,1.4,0c0.8-0.4,1.3-0.3,2,0.3C115.9,239,117.5,238.6,119,238z
			 M59.6,253.5c0.2,0.1,0.4,0.1,0.6,0.2c0.6-2.2,1.2-4.5,1.8-6.7c-0.2-0.1-0.4-0.1-0.6-0.2C60.9,249.1,60.2,251.3,59.6,253.5z
			 M58.1,301.5c0.3-0.1,0.5-0.1,0.8-0.2c-0.4-1.9-0.9-3.7-1.3-5.6c-0.2,0-0.4,0.1-0.5,0.1C57.4,297.7,57.8,299.6,58.1,301.5z"/>
		<path class="st0" d="M303,205.5c-0.5,0.3-0.9,0.9-1.4,1c-5,0.8-10.1,1.9-15.1,2.2c-9.6,0.6-19.2,0.7-28.8,1
			c-2.9,0.1-5.9-0.1-8.8,0.1c-0.7,0-1.4,0.9-2,1.4c0.4,0.4,0.8,1.1,1.3,1.3c2.8,1,5.5,0.4,7.9-0.9c1.2-0.7,2.2-0.9,3.6-0.8
			c2.6,0.1,5.2-0.2,7.9-0.3c0.9,0,1.8-0.2,2.6-0.1c1.7,0.1,2.8,1.6,2,3.2c-1,2-2.4,3.8-3.7,5.6c-2.3,3.2-4.3,6.7-7,9.6
			c-2.2,2.3-5.1,4.3-8,5.7c-3.1,1.5-6.5,2-9.8,3.1c-0.5,0.2-1.2,0.6-1.3,1.1c-0.3,1.5-0.3,3.1-0.4,4.7c0,0.9,0.2,1.7,0.2,2.6
			c0,0.4-0.4,0.7-0.6,1.1c-0.3-0.3-0.8-0.6-0.9-0.9c-0.3-1.8-0.6-3.6-0.8-5.5c-0.1-0.7,0.1-1.4,0.1-2.2c-1.4,0-2.7-0.1-3.9,0
			c-5.2,0.5-10.4,0.2-15.5-1.2c-0.6-0.2-1.2,0-1.9-0.1c-0.9-0.2-2.1-0.2-2.8-0.8c-2.3-1.9-5-2.3-7.7-2.9c-1.5-0.3-1.8,0.1-1.5,1.5
			c1.4,6.9,2.2,13.8,0.6,20.8c-1.4,6.1-3,12.2-4.5,18.3c-0.7,3.1-1.1,6.3-1.8,9.4c-0.8,3.5-1.8,7-2.8,10.4c-0.4,1.4-1,2.7-1.7,3.9
			c-0.3,0.5-1.1,0.6-1.7,0.9c0.1-0.5-0.1-1.2,0.2-1.6c2.3-3.8,3.1-8.1,4.2-12.2c0.6-2.5,0.9-5.2,1.5-7.7c1-4.3,2.3-8.6,3.3-12.9
			c1.4-5.9,2.9-11.8,2.5-17.9c-0.3-4.6-1.5-9.2-2.3-13.8c-0.1-0.4,0-1,0.3-1.3c0.2-0.2,0.8-0.2,1.2-0.1c1.9,0.6,3.9,1.2,5.8,1.9
			c1.9,0.7,3.8,1.5,5.8,2.1c3.4,1,6.9,1.2,10.4,0.3c0.1,0,0.2-0.2,0.4-0.5c-0.5-0.2-1-0.3-1.4-0.5c-2.4-0.9-2.9-3.1-0.9-4.7
			c1.6-1.3,3.2-2.4,5.3-2.8c2.1-0.4,2.2-0.7,1.6-2.6c-0.3-1,0-1.5,0.9-2c1.9-1.1,3.7-1,6.1,0.1c-0.8,0.4-1.3,0.7-1.9,0.9
			c-0.5,0.2-1.1,0.1-1.7,0.3c-0.7,0.2-1.2,0.6-0.4,1.3c1.1,1,0.8,1.5-0.6,2c-1.9,0.6-3.7,1.4-5.4,2.2c-0.7,0.3-1.4,0.8-2.1,1.4
			c-0.8,0.7-0.9,1.2,0.3,1.8c3.7,2,7.4,1.6,11.3,0.8c1.3-0.3,2.6-0.5,4-0.7c1-0.1,1.3,0.4,1,1.3c-0.3,0.7-0.6,1.3-0.9,2
			c0.1,0.2,0.2,0.3,0.3,0.5c1.7-0.5,3.6-0.7,5.2-1.5c3.3-1.6,6.6-3.2,9.6-5.3c1.8-1.2,3.1-3.2,4.4-5.1c2.4-3.4,4.7-6.9,7-10.4
			c0.7-1,0.4-1.7-0.9-1.7c-1.9,0-3.9,0.2-5.9,0.3c0,0.5,0,0.9,0,1.6c-1.8-1.8-3.8-1.2-5.5-0.7c-0.9,0.3-1.4,1.6-2.2,2.5
			c-0.3,0.4-0.6,1.1-1,1.2c-2.2,0.5-4.4,0.9-6.6,1.3c-1.8,0.3-3.7,0.6-5.5,0.7c-2.4,0.1-3.7-2-2.9-4.3c0.2-0.5,0.2-1,0.3-1.5
			c0,0-0.3-4.5-0.3-4.6c-0.2,0-0.5-0.1-0.7-0.1c-1.9,0.4-3.7,0.2-5.6-0.6c-0.8-0.3-1.9,0.1-2.9,0.2c-0.8,0.1-1.6,0.1-2.4,0.2
			c-0.3,0-0.7,0.1-0.8,0.3c-0.1,0.2,0,0.7,0.2,0.8c1.7,0.9,2.4,2.5,2.9,4.3c0.1,0.4,0.4,0.7,0.5,0.8c-2.3,1-4.6,2-6.9,2.8
			c-1.9,0.7-3.7,0.3-5.2-1.1c-1-0.9-1-1.7,0.3-2.2c2-0.8,4.1-1.5,6.2-2.3c0.4-0.1,0.7-0.3,1-0.5c0-0.2,0-0.3,0-0.5
			c-0.8-0.2-1.7-0.5-2.5-0.4c-2.2,0.3-4.5,0.7-6.7,1.2c-0.3,0.1-0.6,0.4-0.8,0.7c-1,1.2-1.9,2.5-3,3.7c-1.1,1.2-1.1,2.5,0,3.8
			c0.2,0.3,0.3,0.6,0.4,1.2c-2.1-1.6-2.8,0.8-4.1,1.3c-1,0.4-1.8,1.1-2.8,1.5c-2.4,0.9-4.7-0.2-5.6-2.6c-0.4-1-0.1-1.6,0.8-2
			c1.2-0.4,2.4-0.8,3.7-1.2c0.7-0.2,1.5-0.3,2.2-0.5c-3.1-3.8-7.1-3.6-11.3-2.6c-1.1,0.3-2.2,0.6-3.3,0.9c0,0.2,0.1,0.3,0.1,0.5
			c1.2,0,2.4,0,3.6,0c0,0.1,0.1,0.3,0.1,0.4c-1.1,1.1-2.6,1.7-4.1,1.6c-1.6-0.1-3.2-0.6-3.4-2.4c-1.2-0.4-2.4-0.5-3.3-1.1
			c-1.3-0.8-1.9-2-1.9-3.6c0-1.1-0.2-2.2-0.5-3.3c-0.8-2.7,0.8-4.1,3.3-4.9c2.2-0.7,4.4,0.1,6.4,1.1c1.4,0.7,2.6,2,4,2.7
			c0.5,0.3,1.5-0.1,2.3-0.3c-0.6-1.3-1.1-2.2-1.4-3.2c-0.1-0.3,0.2-0.7,0.3-1.1c0.4,0.1,0.9,0.1,1.1,0.4c0.9,1.1,1.6,2.4,2.6,3.5
			c0.5,0.5,1.5,0.8,2.3,0.8c0.8-0.1,1.5-0.6,2.2-1.1c0.2-0.2,0.2-0.9,0.1-1.3c-0.9-1.7-0.3-3.3,0.5-4.7c0.7-1.2,2.1-1.3,3-0.2
			c0.7,0.9,1.1,2,1.8,3c0.3,0.4,0.8,0.7,1.2,1c0.1-0.5,0.3-1,0.3-1.5c0-1.3-0.4-2.7-0.2-3.9c0.2-1.2,0.7-2.2,2.5-1.9
			c2.1,0.3,4.2,0.5,5.8,1.9c1.4,1.2,1.3,1.7,0.1,3c-0.3,0.3-0.5,0.6-0.9,1.2c0.7,0,1.2,0.1,1.6,0c3.5-0.8,7-1.7,10.5-2.6
			c1.3-0.3,2.5-0.9,3.7-1.4c0.2-0.1,0.5-0.5,0.5-0.5c-0.2-0.3-0.4-0.6-0.7-0.7c-3.1-0.7-6.1-1.6-9.3-1.8c-5.2-0.4-10.4-0.3-15.6-0.5
			c-1.9,0-3.8-0.1-5.7-0.1c-6.1-0.2-12.1,0.5-18.2,1.6c-0.3,0.1-0.8,0.2-0.8,0.4c-0.3,2.5-2.5,2.3-4,2.7c-3,0.8-6.1,1.1-9.1,1.7
			c-1.7,0.3-3.4,0.7-5.1,1c-1.4,0.2-2.8,0.4-4.3,0.4c-1.3,0-0.9-1.3-1.1-2.1c-0.1-0.2,0.8-1.1,1.2-1c3.1,0.3,5.7-1.1,8.4-2
			c4.3-1.4,8.7-2.5,13.2-3.3c4.4-0.8,8.9-1.3,13.4-1.7c2.8-0.2,5.7-0.1,8.5,0c1.8,0,3.6,0.4,5.4,0.3c7-0.4,13.9-0.3,20.8,1.7
			c1.5,0.4,3.2,0.1,4.9,0.3c0.6,0.1,1.4,0.4,1.7,0.9c0.3,0.5,0.1,1.3,0,1.9c-0.1,0.6-0.4,1.1-0.6,1.6c0.6,0.2,1.2,0.6,1.8,0.6
			c2.3-0.1,4.6-0.3,6.9-0.3c1,0,2.4,0,3,0.6c0.9,0.9,0.2,2.3-0.4,3.3c-0.6,0.9-1.2,1.7-1.9,2.4c-0.8,0.8-0.5,1.3,0.3,1.6
			c0.7,0.2,1.4,0.3,2.1,0.3c3.4,0,6.8,0,10.2-0.2c3.4-0.1,6.9-0.5,10.3-0.6c4.2-0.1,8.5,0.1,12.7-0.2c4.3-0.3,8.6-1,12.8-1.5
			c1.6-0.2,3.1-0.4,4.7-0.6C302.8,205.1,302.9,205.3,303,205.5z M191.2,209.9c1.1-0.3,2.5-0.7,3.9-1.1c0.9-0.3,1.1-1,0.3-1.6
			c-2.4-1.8-6.1-3.2-9.2-1.5c-0.4,0.2-0.9,0.9-0.8,1.2c0.1,0.8,0.5,1.9,1,2.1C187.8,209.4,189.4,209.5,191.2,209.9z M239.9,202.6
			c0,1.3-0.1,2.4,0,3.6c0,0.3,0.5,0.9,0.7,0.9c2.1-0.1,4.6,1.3,6.3-1.1c0.9-1.2,1.7-2.5,2.6-3.8c-0.1-0.1-0.3-0.2-0.4-0.3
			C246,202.1,242.9,202.3,239.9,202.6z M204.5,211.7c0.2,0.8,0.6,1.8,2,2.1c0.9,0.2,1.9,0.4,2.8,0.8c1.5,0.8,2.6,0.4,3.6-0.9
			c0.3-0.5,0.7-0.9,0.9-1.4c0.2-0.6,0.6-1.7,0.4-1.8c-0.7-0.4-1.7-0.9-2.4-0.8C209.4,210.3,207.1,211,204.5,211.7z M230.5,202.3
			c-3.2,0.8-6.5,1.7-9.9,2.5c0,0.2,0,0.5-0.1,0.7c0.5,0.3,1,0.6,1.6,0.8c0.9,0.2,1.8,0.3,2.7,0.4c1.8,0.1,3.6,0.1,5.4,0
			c0.3,0,0.8-0.6,0.8-0.8C230.9,204.6,230.7,203.5,230.5,202.3z M228.4,236.3c0,0.1,0.1,0.3,0.1,0.4c0.4,0.1,0.8,0.1,1.3,0.1
			c2.3,0,4.6,0,7-0.1c1.1,0,2.3-0.1,3.3-0.3c1.2-0.2,1.5-1.2,1.4-2.2c-3.7,0.4-7.3,0.7-10.8,1c-0.2,0-0.4,0-0.6,0.1
			C229.5,235.7,229,236,228.4,236.3z M201.1,209.3c0.1,0,0.2-0.1,0.4-0.1c-0.1-0.3-0.2-0.9-0.4-1c-0.4-0.1-0.9,0-1.3,0.1
			c-0.5,0.2-1.2,0.4-1.5,0.8c-0.6,1-0.9,2.2-1.4,3.3c1,0.3,2,0.7,3,0.9c0.3,0.1,0.7-0.1,1.1-0.2c1.3-0.3,1.7-0.9,0.9-2.1
			C201.5,210.5,201.4,209.9,201.1,209.3z M221,199.7c-1.7-0.4-3.2-0.9-4.7-1.1c-1.1-0.1-1.5,0.8-1.6,1.9c0,0.4,0.1,0.8,0,1.2
			c-0.2,1.2,0.3,1.7,1.6,1.4C218.1,202.6,219.5,201.4,221,199.7z M232.6,204.6c0.1,0.1,0.3,0.1,0.4,0.2c0.4-0.3,0.8-0.5,1.5-0.9
			c0.3,0.6,0.4,1.2,0.8,1.6c0.4,0.5,1.1,1.3,1.4,1.2c0.7-0.2,1.4-0.8,1.7-1.5c0.4-0.8,0.1-1.6-1-1.9c-0.8-0.2-1.6-0.5-2.4-0.6
			c-0.7-0.2-1.4-0.3-2.1-0.4C232.9,203.1,232.7,203.9,232.6,204.6z M192.9,212.3c0-0.2-0.1-0.4-0.1-0.5c-2.2,0-4.4,0-7.3,0
			c0.8,0.8,1.2,1.5,1.9,1.7C189.5,214.3,191.3,213.6,192.9,212.3z M209.5,219.5c-1.8,0.3-3.3,0.5-4.7,0.8c-0.4,0.1-0.7,0.7-1,1.1
			c0.5,0.3,1,0.9,1.5,0.9C206.9,222,208.4,221.5,209.5,219.5z M243.4,209.6c-1,0.4-1.9,0.6-2.7,1c-0.3,0.2-0.3,1-0.4,1.5
			c0.5,0.1,1,0.4,1.4,0.2c0.8-0.3,1.5-0.8,2.2-1.3c0.2-0.2,0.4-0.6,0.3-0.9C244.1,210,243.7,209.9,243.4,209.6z M207.7,202.3
			c0.3,1.4,0.6,2.3,1.8,2.2c0.5-0.1,1.3-0.8,1.2-0.9c-0.5-0.8-1-1.6-1.6-2.4C208.6,201.6,208.1,202,207.7,202.3z M213.1,205.9
			c0,0.2,0.1,0.4,0.1,0.6c1.1,0.8,3,0.9,4,0.2c0.2-0.2,0.5-0.6,0.5-0.9c0-0.2-0.5-0.6-0.8-0.5C215.6,205.4,214.4,205.6,213.1,205.9z
			 M222.3,208.8c-2.6-2-3.9-1.8-5,0.6C219.1,209.2,220.7,209,222.3,208.8z M253.5,214c-1.3,0.2-2.4,0.4-3.5,0.6
			c-0.2,0.1-0.5,0.6-0.5,0.8c0.1,0.3,0.5,0.7,0.7,0.6c1.1-0.2,2.2-0.4,3.3-0.8c0.2-0.1,0.4-0.5,0.5-0.8
			C254,214.3,253.6,214.1,253.5,214z M246.7,215.6c-0.1-0.3-0.3-0.6-0.4-0.9c-0.7,0.3-1.3,0.6-2,0.9c0.2,0.3,0.5,1,0.5,1
			C245.5,216.3,246.1,216,246.7,215.6z"/>
		<path class="st0" d="M113.4,192.8c-0.3-0.9-0.5-1.4-0.7-2.1c3.1,0.1,5.5,1.2,7.6,3.2c0.5,0.5,0.9,0.8,1.7,0.3c1.4-1,3.2-0.5,4,1.1
			c1.3,2.7,3.3,4.6,5.8,6.7c-0.6,0-1.4,0.3-1.9,0c-2.4-1.2-4.2-3-5.2-5.7c-0.1-0.4-0.6-0.6-0.9-0.9c-0.1,0.5-0.4,1.1-0.2,1.4
			c0.5,0.9,0.6,1.6-0.3,2.1c-1,0.6-1.5-0.1-2-0.8c-0.9-1.3-1.7-2.6-2.5-3.8c-0.4-0.5-0.8-0.9-1.4-1.2c-0.4-0.2-0.9-0.1-1.3-0.2
			c0.1,0.5,0,1.2,0.3,1.6c1.1,1.4,2.3,2.7,3.4,4.1c0.1,0.1,0.2,0.4,0.1,0.6c-1.3,2.1,0.9,3.2,1.3,4.7c0.2,0.6,0.5,1.1,0.8,1.6
			c-0.4,0.2-0.9,0.5-1.2,0.4c-0.7-0.2-1.3-0.6-1.8-1.1c-0.7-0.8-1.1-2.1-1.9-2.5c-1.3-0.6-2.7-0.7-3.6-2.1c-0.2-0.3-2.1,0.5-2.7,0.6
			c0.1,1.3,0.3,2.2,0.2,3.1c-0.1,0.5-0.6,1-1,1.5c-0.5-0.4-1.3-0.7-1.5-1.2c-0.7-1.7-2-2.5-3.6-3.1c-0.3-0.1-0.6-0.1-0.9-0.2
			c-2.8-0.3-3.3-0.8-4-3.4c-0.2-0.7-0.5-1.3-0.9-1.8c-0.8-0.9-0.9-1.9,0.1-2.5c1.6-1,3.4-2.6,5-2.5c2.5,0.1,5.4-0.3,7.7,1.6
			C112.1,192.5,112.7,192.5,113.4,192.8z"/>
		<path class="st0" d="M126.8,217.7c-0.3-0.7-0.5-1.1-0.6-1.4c-0.2-1.3-0.2-2.6-1.9-3.1c-0.2,0-0.4-1.3-0.2-1.4
			c1.6-1.3,3.1-2.8,4.9-3.5c2.5-1,4.1,1.2,5.3,2.9c0.9,1.3,1.5,1.5,2.8,0.8c1-0.5,2.2-0.8,3.4-1c1.6-0.3,2.6,0.9,2.2,2.5
			c-0.5,1.8-0.2,2,1.4,2.5c0.6,0.2,1.3,0.8,1.6,1.4c0.5,0.9,0,1.5-1,1.4c-0.8-0.1-1.6-0.3-2.4-0.6c-1.6-0.6-3.1-1.7-5-0.8
			c-0.2,0.1-0.8,0.1-0.9-0.1c-1.5-1.9-4.8-1.9-5.2-5c-0.1-0.9-1.5-1.1-2.1-0.2c-1,1.3-2.4,2.4-2,4.4
			C127.2,216.9,127,217.1,126.8,217.7z"/>
		<path class="st0" d="M233.1,218.8c-1,0.2-2,0.5-3.2,0.7c2.2,2.8,1.1,5.1-1.6,5.7c-1.5,0.3-2.8,0.9-4.3,1.3
			c-1.1,0.3-2.1,0.4-2.9-0.7c-0.8-1.2-0.3-2.2,0.5-3.1c2.3-2.6,5.3-4.3,8.7-5c0.9-0.2,1.9,0.4,2.9,0.6
			C233.1,218.4,233.1,218.6,233.1,218.8z M227.2,221.3c-1.4-0.1-2.5,0.5-3.3,1.6c-0.2,0.3-0.2,0.7-0.3,1.1c0.4,0.1,0.9,0.4,1.2,0.3
			c1.1-0.3,2.2-0.6,3.2-1.1c0.6-0.3,1.5-0.8,1.5-1.2c-0.1-1.1-1-0.8-1.8-0.7C227.5,221.4,227.4,221.3,227.2,221.3z"/>
		<path class="st0" d="M142.9,208c0.6,0.1,1,0.1,1.4,0.2c2.9,1.3,5.8,2.7,8.6,4c0.4,0.2,0.6,0.7,0.9,1c-0.4,0.1-1,0.4-1.3,0.3
			c-1.6-0.5-3.2-1.2-5.3-1.9c0.4,1.4,0.7,2.5,1.1,3.7c0.6-0.3,0.9-0.4,1.7-0.8c-0.4,0.8-0.6,1.4-0.9,1.6c-0.3,0.2-1.1,0-1.2-0.2
			c-0.6-1.1-1-2.3-1.5-3.5c-0.2-0.6-0.4-1.2-0.6-1.9c-0.5,0.2-0.9,0.4-1.2,0.5C144,210.1,143.5,209.2,142.9,208z"/>
		<path class="st0" d="M238.1,227.8c2.2-1.5,5.5-2.4,4.2-6.2c1,0.3,1.4,1.1,1.3,2.2C243.3,225.5,240.3,227.8,238.1,227.8z"/>
		<path class="st0" d="M173.3,229.8c0.5-0.9,2.8-0.7,1-2.3c0.4-0.3,0.7-0.5,1.1-0.9c0,0.8,0,1.4,0,2.1c2.4,0.2,2.5,0.4,1.5,1.9
			C175.8,230.4,174.6,230.1,173.3,229.8z"/>
		<path class="st0" d="M176.3,237.8c-0.8,0.5-1.5,1-2.4,1.5c-0.3-0.3-0.6-0.6-0.9-0.8c0.5-2.1,2-0.9,3.1-1.1
			C176.2,237.6,176.3,237.7,176.3,237.8z"/>
		<path class="st0" d="M159.4,238.8c1-0.3,1.9-0.6,2.9-0.9c0.3,0.8,0.5,1.4,0.9,2.4C161.8,239.8,160.8,239.4,159.4,238.8z"/>
		<path class="st0" d="M91,223.8c0.5-1.4,0.9-2.8,1.4-4.2c0.2,0.1,0.4,0.1,0.6,0.2c-0.4,1.4-0.8,2.8-1.2,4.2
			C91.5,223.9,91.3,223.9,91,223.8z"/>
		<path class="st0" d="M77.8,344.2c-0.6-1.8-1.1-3.5-1.7-5.3c0.2-0.1,0.4-0.1,0.6-0.2c0.5,1.8,1,3.5,1.4,5.3
			C78,344.1,77.9,344.2,77.8,344.2z"/>
		<path class="st0" d="M215.5,233c0-0.9,0-1.8,0-2.8c0.1,0,0.3,0,0.4,0c0,0.9,0,1.8,0,2.8C215.8,233,215.7,233,215.5,233z"/>
	</g>
</g>
</svg>
