<?xml version="1.0" encoding="utf-8"?>
<!-- Generator: Adobe Illustrator 22.1.0, SVG Export Plug-In . SVG Version: 6.00 Build 0)  -->
<svg version="1.1" id="Capa_1" xmlns="http://www.w3.org/2000/svg" xmlns:xlink="http://www.w3.org/1999/xlink" x="0px" y="0px"
	 viewBox="0 0 259 80" style="enable-background:new 0 0 259 80;" xml:space="preserve">
<style type="text/css">
	.st0{fill:#E6DCD1;}
</style>
<g>
	<path class="st0" d="M45.1,27.2C55.4,20.5,61.1,5.1,61,5c-0.1-0.1-0.3-0.1-0.4-0.2c-2.8-1.3-5.7-2.2-8.8-2.9
		C52.5,11.1,51.2,19.7,45.1,27.2"/>
	<path class="st0" d="M63.9,6.3c-3.8,12.1-13.6,25.1-31.4,30.4c-4.7,1-8.7,1.4-12.1,1.4l0-3.7c4.1,0.2,7.9-1.2,10.5-4.5
		c1.5-2.6,2.4-5,2.6-6.6c0.6-4.8,0.2-8.6,0.2-8.9c0,0,0,0,0,0c0,0,0,0,0,0c0.1,0.2,2.1,0,3.1,0c1.1,4.1,0.2,11.3-2,16.2
		c3.5-0.9,9.2-7.5,11.6-13.1c2.2-5.3,1.9-10.8,1.9-16.5c-1.6-0.2-3.3-0.3-5-0.3c-22.6,0-41,18.3-41,41c0,12,5,22.7,13,30.4
		c5,4.7,10,6.4,11.6,6.9c0.2,0.1,0.4,0.1,0.6,0c9.6-1.5,12.6-8,13.2-11c0.7-3.3-0.3-6-3.2-7.6c-1.1-0.6-2.6-0.8-3.7-0.9
		c-1.1-0.1-1.6,0.4-1.9,1.3c-0.5,1.4-0.9,2.8-1.4,4.1c-1.2,3.7-6.2,6.2-9.8,4.9C20,69.7,20,69.3,20,68.8c0-9,0-18,0-27
		c0-0.8,0.2-1.3,1.1-1.3c7.4,0.2,15-0.8,22.2,1.7C54,45.9,61.6,53.1,65.1,63.8c1.3,3.9,1.9,7.6,2,11.2c10.6-7.5,17.1-19.6,17.1-33.3
		C84.2,26.6,76.1,13.4,63.9,6.3"/>
	<path class="st0" d="M91.9,40.3l8.5-20.4h2.7l8.4,20.4H109l-2.6-6.4h-9.6l-2.6,6.4H91.9z M97.6,32h8l-4-10L97.6,32z"/>
	<path class="st0" d="M113.8,40.3V19.9h8.7c1.3,0,2.5,0.2,3.5,0.7c1,0.5,1.8,1.2,2.3,2c0.6,0.9,0.8,1.9,0.8,3.1
		c0,1.3-0.4,2.5-1.2,3.5c-0.8,1-1.8,1.6-3.2,2l4.6,9.1h-2.5l-4.4-8.8H116v8.8H113.8z M116,29.6h6.4c1.4,0,2.5-0.4,3.3-1
		c0.8-0.7,1.2-1.6,1.2-2.8c0-1.2-0.4-2.1-1.2-2.8c-0.8-0.7-1.9-1-3.3-1H116V29.6z"/>
	<path class="st0" d="M142.2,40.6c-1.5,0-2.9-0.3-4.1-0.8c-1.3-0.5-2.4-1.3-3.4-2.3c-1-1-1.7-2.1-2.3-3.4c-0.5-1.3-0.8-2.6-0.8-4.1
		c0-1.5,0.3-2.8,0.8-4.1c0.5-1.3,1.3-2.4,2.2-3.4c1-1,2.1-1.7,3.4-2.3c1.3-0.5,2.6-0.8,4.1-0.8c1.6,0,3.1,0.3,4.5,0.9
		c1.4,0.6,2.6,1.4,3.6,2.5l-1.5,1.5c-0.8-0.9-1.7-1.6-2.9-2.1c-1.2-0.5-2.4-0.7-3.6-0.7c-1.2,0-2.3,0.2-3.3,0.6
		c-1,0.4-1.9,1-2.6,1.8c-0.7,0.8-1.3,1.7-1.7,2.7c-0.4,1-0.6,2.1-0.6,3.3c0,1.2,0.2,2.3,0.6,3.3c0.4,1,1,1.9,1.7,2.7
		c0.7,0.8,1.6,1.4,2.6,1.8c1,0.4,2.1,0.6,3.3,0.6c1.4,0,2.6-0.3,3.7-0.9c1.1-0.6,2-1.4,2.7-2.5c0.7-1,1.1-2.2,1.2-3.6h-7.3v-2h9.6
		v0.9c0,1.4-0.3,2.7-0.8,4c-0.5,1.2-1.2,2.3-2.1,3.2c-0.9,0.9-1.9,1.6-3.1,2.1C144.9,40.4,143.6,40.6,142.2,40.6"/>
	<polygon class="st0" points="155.6,40.3 155.6,19.9 170.2,19.9 170.2,21.9 157.8,21.9 157.8,29 165.9,29 165.9,31 157.8,31 
		157.8,38.3 170.3,38.3 170.3,40.3 	"/>
	<polygon class="st0" points="173.5,40.3 173.5,19.9 175.8,19.9 188.1,36.5 188.1,19.9 190.2,19.9 190.2,40.3 188.2,40.3 
		175.7,23.3 175.7,40.3 	"/>
	<polygon class="st0" points="200.3,40.3 200.3,21.9 192.9,21.9 192.9,19.9 209.9,19.9 209.9,21.9 202.6,21.9 202.6,40.3 	"/>
	<rect x="212.7" y="19.9" class="st0" width="2.2" height="20.4"/>
	<polygon class="st0" points="219.4,40.3 219.4,19.9 221.7,19.9 233.9,36.5 233.9,19.9 236.1,19.9 236.1,40.3 234.1,40.3 
		221.5,23.3 221.5,40.3 	"/>
	<path class="st0" d="M238.4,40.3l8.5-20.4h2.7l8.4,20.4h-2.4l-2.6-6.4h-9.6l-2.6,6.4H238.4z M244.1,32h8l-4-10L244.1,32z"/>
	<polygon class="st0" points="99,66.1 99,50.1 92.3,50.1 92.3,45.7 110.6,45.7 110.6,50.1 104,50.1 104,66.1 	"/>
	<path class="st0" d="M120.7,66.4c-1.5,0-3-0.3-4.3-0.8c-1.3-0.5-2.5-1.3-3.5-2.2c-1-1-1.8-2.1-2.3-3.4c-0.6-1.3-0.8-2.6-0.8-4.1
		c0-1.5,0.3-2.9,0.8-4.1c0.6-1.3,1.3-2.4,2.3-3.4c1-1,2.1-1.7,3.5-2.2c1.3-0.5,2.8-0.8,4.3-0.8c1.5,0,3,0.3,4.3,0.8
		c1.3,0.5,2.5,1.3,3.5,2.2c1,1,1.8,2.1,2.3,3.4c0.6,1.3,0.8,2.6,0.8,4.1c0,1.5-0.3,2.9-0.8,4.1c-0.6,1.3-1.3,2.4-2.3,3.4
		c-1,1-2.1,1.7-3.5,2.2C123.7,66.1,122.3,66.4,120.7,66.4 M120.7,61.8c0.8,0,1.6-0.2,2.3-0.5c0.7-0.3,1.3-0.7,1.8-1.2
		c0.5-0.5,0.9-1.2,1.2-1.9c0.3-0.7,0.4-1.5,0.4-2.3c0-0.9-0.1-1.6-0.4-2.4c-0.3-0.7-0.7-1.3-1.2-1.9c-0.5-0.5-1.1-0.9-1.8-1.2
		c-0.7-0.3-1.5-0.5-2.3-0.5c-0.8,0-1.6,0.2-2.3,0.5c-0.7,0.3-1.3,0.7-1.8,1.2c-0.5,0.5-0.9,1.1-1.2,1.9c-0.3,0.7-0.4,1.5-0.4,2.3
		c0,0.9,0.1,1.6,0.4,2.4c0.3,0.7,0.7,1.4,1.2,1.9c0.5,0.5,1.1,0.9,1.8,1.2C119.2,61.6,119.9,61.8,120.7,61.8"/>
	<path class="st0" d="M133.1,66.1V45.7h10.8c1.3,0,2.5,0.3,3.6,0.9c1,0.6,1.9,1.4,2.5,2.3c0.6,1,0.9,2.1,0.9,3.4
		c0,1.2-0.3,2.3-0.9,3.3c-0.6,1-1.4,1.8-2.5,2.3c-1,0.6-2.2,0.8-3.6,0.8h-5.7v7.3H133.1z M138.1,54.6h5.2c0.7,0,1.3-0.2,1.8-0.6
		c0.4-0.4,0.7-1,0.7-1.7c0-0.7-0.2-1.3-0.7-1.7c-0.4-0.4-1-0.7-1.8-0.7h-5.2V54.6z"/>
	<polygon class="st0" points="156.8,66.1 156.8,45.7 161.8,45.7 161.8,53.5 170.2,53.5 170.2,45.7 175.2,45.7 175.2,66.1 
		170.2,66.1 170.2,58.1 161.8,58.1 161.8,66.1 	"/>
	<path class="st0" d="M186.5,66.4c-1.9,0-3.5-0.4-4.9-1.1c-1.4-0.7-2.5-1.8-3.2-3.2c-0.8-1.4-1.1-3-1.1-4.9V45.7h5v11.5
		c0,0.9,0.2,1.7,0.5,2.4c0.4,0.7,0.9,1.2,1.5,1.6c0.7,0.4,1.4,0.6,2.3,0.6c0.9,0,1.6-0.2,2.3-0.6c0.6-0.4,1.1-0.9,1.5-1.6
		c0.4-0.7,0.5-1.5,0.5-2.4V45.7h5v11.5c0,1.8-0.4,3.5-1.2,4.8c-0.8,1.4-1.8,2.4-3.2,3.2C190,66,188.4,66.4,186.5,66.4"/>
	<polygon class="st0" points="197.7,66.1 197.7,45.7 202.4,45.7 211.7,57.5 211.7,45.7 216.4,45.7 216.4,66.1 212,66.1 202.4,53.8 
		202.4,66.1 	"/>
	<polygon class="st0" points="224.2,66.1 224.2,50.1 217.5,50.1 217.5,45.7 235.9,45.7 235.9,50.1 229.2,50.1 229.2,66.1 	"/>
	<path class="st0" d="M244.8,66.4c-1.7,0-3.3-0.3-4.9-0.9c-1.6-0.6-3.1-1.4-4.3-2.5l2.8-3.6c1.2,1,2.4,1.7,3.4,2.2
		c1,0.4,2.2,0.7,3.4,0.7c0.8,0,1.4-0.1,2-0.2c0.5-0.2,1-0.4,1.3-0.7c0.3-0.3,0.4-0.7,0.4-1.1c0-0.6-0.2-1-0.6-1.3
		c-0.4-0.3-1.2-0.6-2.2-0.7l-4.5-0.8c-1.7-0.3-2.9-0.9-3.8-1.9c-0.9-1-1.3-2.2-1.3-3.7c0-1.3,0.3-2.5,1-3.4c0.7-1,1.6-1.7,2.9-2.2
		c1.3-0.5,2.7-0.8,4.5-0.8c1.5,0,3,0.3,4.6,0.8c1.5,0.5,2.9,1.2,4,2.1l-2.7,3.7c-2.1-1.6-4.2-2.4-6.3-2.4c-0.7,0-1.3,0.1-1.8,0.2
		c-0.5,0.1-0.9,0.4-1.1,0.6c-0.3,0.3-0.4,0.6-0.4,0.9c0,0.5,0.2,0.9,0.6,1.2c0.4,0.3,1,0.5,1.9,0.6l4.2,0.7c2,0.3,3.5,1,4.5,2
		c1,1,1.5,2.3,1.5,3.9c0,1.4-0.4,2.6-1.1,3.6c-0.7,1-1.7,1.8-3.1,2.3C248.2,66.1,246.6,66.4,244.8,66.4"/>
</g>
</svg>
