<?xml version="1.0" encoding="utf-8"?>
<!-- Generator: Adobe Illustrator 22.1.0, SVG Export Plug-In . SVG Version: 6.00 Build 0)  -->
<svg version="1.1" id="Capa_1" xmlns="http://www.w3.org/2000/svg" xmlns:xlink="http://www.w3.org/1999/xlink" x="0px" y="0px"
	 viewBox="0 0 114 36" style="enable-background:new 0 0 114 36;" xml:space="preserve">
<style type="text/css">
	.st0{fill:#5A6B60;}
</style>
<g>
	<path class="st0" d="M19.4,12.1c4.5-2.9,7-9.7,7-9.7c-0.1,0-0.1-0.1-0.2-0.1c-1.2-0.6-2.5-1-3.8-1.3C22.6,5.1,22.1,8.8,19.4,12.1"
		/>
	<path class="st0" d="M27.6,3c-1.7,5.3-5.9,11-13.8,13.3c-2,0.4-3.8,0.6-5.3,0.6l0-1.6c1.8,0.1,3.5-0.5,4.6-2c0.7-1.1,1-2.2,1.1-2.9
		c0.3-2.1,0.1-3.7,0.1-3.9c0,0,0,0,0,0c0,0,0,0,0,0c0,0.1,0.9,0,1.3,0c0.5,1.8,0.1,4.9-0.9,7.1c1.5-0.4,4-3.3,5.1-5.8
		c1-2.3,0.9-4.7,0.8-7.2c-0.7-0.1-1.4-0.1-2.2-0.1c-9.9,0-17.9,8-17.9,17.9c0,5.3,2.2,9.9,5.7,13.3c2.2,2.1,4.4,2.8,5.1,3
		c0.1,0,0.2,0,0.2,0c4.2-0.7,5.5-3.5,5.8-4.8c0.3-1.4-0.1-2.6-1.4-3.3c-0.5-0.2-1.1-0.4-1.6-0.4c-0.5,0-0.7,0.2-0.8,0.6
		c-0.2,0.6-0.4,1.2-0.6,1.8c-0.5,1.6-2.7,2.7-4.3,2.2c-0.3-0.1-0.3-0.3-0.3-0.5c0-3.9,0-7.9,0-11.8c0-0.3,0.1-0.6,0.5-0.6
		c3.3,0.1,6.6-0.4,9.7,0.7c4.7,1.6,8,4.8,9.5,9.5c0.5,1.7,0.8,3.3,0.9,4.9c4.6-3.3,7.5-8.6,7.5-14.6C36.5,11.9,32.9,6.1,27.6,3"/>
	<path class="st0" d="M39.9,17.9l3.7-8.9h1.2l3.7,8.9h-1.1L46.2,15H42l-1.1,2.8H39.9z M42.4,14.2h3.5l-1.8-4.4L42.4,14.2z"/>
	<path class="st0" d="M49.5,17.9V8.9h3.8c0.6,0,1.1,0.1,1.5,0.3c0.4,0.2,0.8,0.5,1,0.9c0.2,0.4,0.4,0.8,0.4,1.4
		c0,0.6-0.2,1.1-0.5,1.5c-0.3,0.4-0.8,0.7-1.4,0.9l2,4h-1.1L53.3,14h-2.9v3.8H49.5z M50.4,13.2h2.8c0.6,0,1.1-0.2,1.4-0.5
		c0.4-0.3,0.5-0.7,0.5-1.2c0-0.5-0.2-0.9-0.5-1.2c-0.4-0.3-0.8-0.5-1.4-0.5h-2.8V13.2z"/>
	<path class="st0" d="M61.9,18c-0.6,0-1.2-0.1-1.8-0.4c-0.6-0.2-1-0.6-1.5-1c-0.4-0.4-0.8-0.9-1-1.5c-0.2-0.6-0.4-1.2-0.4-1.8
		c0-0.6,0.1-1.2,0.4-1.8c0.2-0.6,0.6-1,1-1.5c0.4-0.4,0.9-0.8,1.5-1c0.6-0.2,1.2-0.4,1.8-0.4c0.7,0,1.3,0.1,2,0.4
		c0.6,0.3,1.1,0.6,1.6,1.1l-0.7,0.7c-0.3-0.4-0.8-0.7-1.3-0.9c-0.5-0.2-1-0.3-1.6-0.3c-0.5,0-1,0.1-1.4,0.3
		c-0.4,0.2-0.8,0.4-1.1,0.8c-0.3,0.3-0.6,0.7-0.8,1.2c-0.2,0.4-0.3,0.9-0.3,1.5c0,0.5,0.1,1,0.3,1.5c0.2,0.5,0.4,0.8,0.8,1.2
		c0.3,0.3,0.7,0.6,1.1,0.8c0.4,0.2,0.9,0.3,1.4,0.3c0.6,0,1.2-0.1,1.6-0.4c0.5-0.3,0.9-0.6,1.2-1.1c0.3-0.5,0.5-1,0.5-1.6H62v-0.9
		h4.2v0.4c0,0.6-0.1,1.2-0.3,1.7c-0.2,0.5-0.5,1-0.9,1.4c-0.4,0.4-0.9,0.7-1.4,0.9C63.1,17.9,62.5,18,61.9,18"/>
	<polygon class="st0" points="67.8,17.9 67.8,8.9 74.2,8.9 74.2,9.8 68.7,9.8 68.7,12.9 72.3,12.9 72.3,13.8 68.7,13.8 68.7,17 
		74.2,17 74.2,17.9 	"/>
	<polygon class="st0" points="75.6,17.9 75.6,8.9 76.6,8.9 82,16.2 82,8.9 82.9,8.9 82.9,17.9 82.1,17.9 76.6,10.4 76.6,17.9 	"/>
	<polygon class="st0" points="87.4,17.9 87.4,9.8 84.1,9.8 84.1,8.9 91.6,8.9 91.6,9.8 88.3,9.8 88.3,17.9 	"/>
	<rect x="92.8" y="8.9" class="st0" width="1" height="8.9"/>
	<polygon class="st0" points="95.7,17.9 95.7,8.9 96.7,8.9 102.1,16.2 102.1,8.9 103,8.9 103,17.9 102.1,17.9 96.7,10.4 96.7,17.9 	
		"/>
	<path class="st0" d="M104,17.9l3.7-8.9h1.2l3.7,8.9h-1.1l-1.1-2.8h-4.2l-1.1,2.8H104z M106.6,14.2h3.5l-1.8-4.4L106.6,14.2z"/>
	<polygon class="st0" points="43,29.2 43,22.2 40,22.2 40,20.2 48.1,20.2 48.1,22.2 45.2,22.2 45.2,29.2 	"/>
	<path class="st0" d="M52.5,29.3c-0.7,0-1.3-0.1-1.9-0.4c-0.6-0.2-1.1-0.6-1.5-1c-0.4-0.4-0.8-0.9-1-1.5c-0.2-0.6-0.4-1.2-0.4-1.8
		c0-0.6,0.1-1.2,0.4-1.8c0.2-0.6,0.6-1,1-1.5c0.4-0.4,0.9-0.7,1.5-1c0.6-0.2,1.2-0.4,1.9-0.4c0.7,0,1.3,0.1,1.9,0.4
		c0.6,0.2,1.1,0.6,1.5,1c0.4,0.4,0.8,0.9,1,1.5c0.2,0.6,0.4,1.2,0.4,1.8c0,0.6-0.1,1.2-0.4,1.8c-0.2,0.6-0.6,1-1,1.5
		c-0.4,0.4-0.9,0.7-1.5,1C53.8,29.2,53.2,29.3,52.5,29.3 M52.5,27.3c0.4,0,0.7-0.1,1-0.2c0.3-0.1,0.6-0.3,0.8-0.5
		c0.2-0.2,0.4-0.5,0.5-0.8c0.1-0.3,0.2-0.7,0.2-1c0-0.4-0.1-0.7-0.2-1c-0.1-0.3-0.3-0.6-0.5-0.8c-0.2-0.2-0.5-0.4-0.8-0.5
		c-0.3-0.1-0.6-0.2-1-0.2c-0.4,0-0.7,0.1-1,0.2c-0.3,0.1-0.6,0.3-0.8,0.5c-0.2,0.2-0.4,0.5-0.5,0.8C50,24,50,24.3,50,24.7
		c0,0.4,0.1,0.7,0.2,1c0.1,0.3,0.3,0.6,0.5,0.8c0.2,0.2,0.5,0.4,0.8,0.5C51.8,27.2,52.1,27.3,52.5,27.3"/>
	<path class="st0" d="M57.9,29.2v-8.9h4.7c0.6,0,1.1,0.1,1.6,0.4c0.5,0.3,0.8,0.6,1.1,1c0.3,0.4,0.4,0.9,0.4,1.5
		c0,0.5-0.1,1-0.4,1.4c-0.3,0.4-0.6,0.8-1.1,1c-0.5,0.2-1,0.4-1.6,0.4h-2.5v3.2H57.9z M60.1,24.1h2.3c0.3,0,0.6-0.1,0.8-0.3
		c0.2-0.2,0.3-0.4,0.3-0.7c0-0.3-0.1-0.6-0.3-0.7c-0.2-0.2-0.5-0.3-0.8-0.3h-2.3V24.1z"/>
	<polygon class="st0" points="68.3,29.2 68.3,20.2 70.5,20.2 70.5,23.6 74.2,23.6 74.2,20.2 76.4,20.2 76.4,29.2 74.2,29.2 
		74.2,25.7 70.5,25.7 70.5,29.2 	"/>
	<path class="st0" d="M81.3,29.3c-0.8,0-1.5-0.2-2.2-0.5c-0.6-0.3-1.1-0.8-1.4-1.4c-0.3-0.6-0.5-1.3-0.5-2.1v-5h2.2v5
		c0,0.4,0.1,0.8,0.2,1.1c0.2,0.3,0.4,0.5,0.7,0.7c0.3,0.2,0.6,0.2,1,0.2c0.4,0,0.7-0.1,1-0.2c0.3-0.2,0.5-0.4,0.6-0.7
		c0.2-0.3,0.2-0.7,0.2-1.1v-5h2.2v5c0,0.8-0.2,1.5-0.5,2.1c-0.3,0.6-0.8,1.1-1.4,1.4C82.8,29.1,82.1,29.3,81.3,29.3"/>
	<polygon class="st0" points="86.2,29.2 86.2,20.2 88.3,20.2 92.3,25.4 92.3,20.2 94.4,20.2 94.4,29.2 92.5,29.2 88.3,23.8 
		88.3,29.2 	"/>
	<polygon class="st0" points="97.8,29.2 97.8,22.2 94.9,22.2 94.9,20.2 102.9,20.2 102.9,22.2 100,22.2 100,29.2 	"/>
	<path class="st0" d="M106.8,29.3c-0.7,0-1.4-0.1-2.1-0.4c-0.7-0.3-1.3-0.6-1.9-1.1l1.2-1.6c0.5,0.4,1,0.8,1.5,1
		c0.5,0.2,0.9,0.3,1.5,0.3c0.3,0,0.6,0,0.9-0.1c0.2-0.1,0.4-0.2,0.5-0.3c0.1-0.1,0.2-0.3,0.2-0.5c0-0.2-0.1-0.4-0.3-0.6
		c-0.2-0.1-0.5-0.2-1-0.3l-2-0.3c-0.7-0.1-1.3-0.4-1.7-0.8c-0.4-0.4-0.6-1-0.6-1.6c0-0.6,0.1-1.1,0.4-1.5c0.3-0.4,0.7-0.7,1.3-1
		c0.5-0.2,1.2-0.3,2-0.3c0.7,0,1.3,0.1,2,0.3c0.7,0.2,1.3,0.5,1.8,0.9l-1.2,1.6c-0.9-0.7-1.8-1.1-2.7-1.1c-0.3,0-0.6,0-0.8,0.1
		c-0.2,0.1-0.4,0.2-0.5,0.3c-0.1,0.1-0.2,0.3-0.2,0.4c0,0.2,0.1,0.4,0.2,0.5c0.2,0.1,0.4,0.2,0.8,0.3l1.9,0.3c0.9,0.1,1.5,0.4,2,0.9
		c0.4,0.4,0.7,1,0.7,1.7c0,0.6-0.2,1.1-0.5,1.6c-0.3,0.4-0.8,0.8-1.4,1C108.3,29.2,107.6,29.3,106.8,29.3"/>
</g>
</svg>
